M48
;Layer_Color=9474304
;FILE_FORMAT=4:4
METRIC,TZ
;TYPE=PLATED
T1F00S00C0.9000
T2F00S00C1.0000
%
T01
X933000Y506000
Y526000
X953000
Y506000
X973000
Y526000
X993000Y526000
Y506000
X1013000Y506000
Y526000
X1033000
Y506000
X1053000
X1073000
Y526000
X1053000
X1093000
Y506000
Y706000
X1073000
Y726000
X1093000
X1053000
X1033000
Y706000
X1053000
X1013000
Y726000
X993000
X973000
Y706000
X993000
X953000
Y726000
X933000Y726000
Y706000
T02
X720000Y376000
X848000
X968000Y377000
Y402400
X848000Y401400
X720000
X665000Y560000
Y585400
Y610800
Y636200
Y661600
X639600
Y636200
Y610800
Y585400
Y560000
X646002Y828200
Y853600
Y879000
Y904400
X746000Y904000
Y878600
Y853200
X856002Y852600
Y878000
Y903400
X970002Y904000
Y878600
Y853200
X1082002Y853200
Y878600
Y904000
M30
