M48
;Layer_Color=9474304
;FILE_FORMAT=4:4
METRIC,TZ
;TYPE=PLATED
T1F00S00C0.9000
T2F00S00C1.0000
T3F00S00C2.0000
%
T01
X933000Y506000
Y526000
X953000
X973000Y526000
Y506000
X953000
X993000
Y526000
X1013000
X1033000
X1053000
X1073000
X1093000
Y506000
X1073000
X1053000
X1033000
X1013000Y506000
Y706000
X993000
X973000
X953000
X933000
Y726000
X953000Y726000
X973000Y726000
X993000
X1013000
X1033000
X1053000
Y706000
X1033000
X1073000
X1093000
Y726000
X1073000
T02
X720000Y376000
X848000
X968000Y377000
Y402400
X848000Y401400
X720000
X665000Y560000
X639600
Y585400
X665000
Y610800
X639600
Y636200
X665000
Y661600
X639600
X646000Y804200
Y829600
Y855000
Y880400
Y905800
X746000Y851500
X856002Y850900
X970002Y851500
X1082002Y851500
T03
X746000Y879000
Y911500
X856002Y910900
Y878400
X970002Y879000
Y911500
X1082002Y911500
Y879000
M30
