G04 Layer_Physical_Order=1*
G04 Layer_Color=255*
%FSAX44Y44*%
%MOMM*%
G71*
G01*
G75*
%ADD10R,2.5000X7.5000*%
%ADD11R,11.0000X15.5000*%
%ADD12R,18.0000X4.5000*%
%ADD13R,4.5000X22.5000*%
%ADD14R,9.5000X11.0000*%
%ADD15R,5.5000X4.5000*%
%ADD16R,1.6000X1.6000*%
%ADD17R,2.5000X2.5000*%
%ADD18R,4.0000X4.0000*%
%ADD19R,4.4000X3.2000*%
%ADD20R,1.8000X1.8000*%
%ADD21R,1.5000X2.3000*%
G36*
X00942000Y00605000D02*
X00970000D01*
Y00545000D01*
X00875000D01*
X00860000Y00530000D01*
X00685000D01*
Y00800000D01*
X00942000D01*
Y00605000D01*
D02*
G37*
G36*
X00955000Y00846000D02*
X00942000D01*
Y00830000D01*
X00865000D01*
Y00845000D01*
X00845000D01*
X00845000Y00845000D01*
Y00845000D01*
X00826270D01*
X00825000Y00845000D01*
Y00845000D01*
X00825000D01*
Y00845000D01*
X00806270D01*
X00805000Y00845000D01*
Y00845000D01*
X00805000D01*
Y00845000D01*
X00786270D01*
X00785000Y00845000D01*
Y00845000D01*
X00785000D01*
Y00845000D01*
X00766270D01*
X00765000Y00845000D01*
Y00845000D01*
X00765000D01*
Y00845000D01*
X00746270D01*
X00745000Y00845000D01*
Y00845000D01*
X00745000D01*
Y00845000D01*
X00726270D01*
X00725000Y00845000D01*
Y00845000D01*
X00725000D01*
Y00845000D01*
X00705000D01*
Y00830000D01*
X00585000D01*
Y00960000D01*
Y01005000D01*
X00605000Y01025000D01*
X00955000D01*
Y00846000D01*
D02*
G37*
G36*
X01176666Y00333334D02*
X00985000D01*
Y00605000D01*
X01030000D01*
Y00845000D01*
X00985000D01*
Y01026666D01*
X01176666D01*
Y00333334D01*
D02*
G37*
%LPC*%
G36*
X01119500Y00874500D02*
X01090500D01*
Y00845500D01*
X01119500D01*
Y00874500D01*
D02*
G37*
G36*
X01169500D02*
X01140500D01*
Y00845500D01*
X01169500D01*
Y00874500D01*
D02*
G37*
G36*
X00775000Y00885000D02*
X00746000D01*
Y00856000D01*
X00775000D01*
Y00885000D01*
D02*
G37*
G36*
X00914000D02*
X00885000D01*
Y00856000D01*
X00914000D01*
Y00885000D01*
D02*
G37*
G36*
X01142000Y00763200D02*
X01098000D01*
Y00719200D01*
X01142000D01*
Y00763200D01*
D02*
G37*
G36*
X01140500Y00488500D02*
X01111500D01*
Y00459500D01*
X01140500D01*
Y00488500D01*
D02*
G37*
G36*
X01090500D02*
X01061500D01*
Y00459500D01*
X01090500D01*
Y00488500D01*
D02*
G37*
G36*
X01142000Y00610800D02*
X01098000D01*
Y00566800D01*
X01142000D01*
Y00610800D01*
D02*
G37*
G36*
X00825000Y00645000D02*
X00823730Y00645000D01*
X00806270D01*
X00805000Y00645000D01*
X00803730Y00645000D01*
X00786270D01*
X00785000Y00645000D01*
X00783730Y00645000D01*
X00766270D01*
X00765000Y00645000D01*
X00763730Y00645000D01*
X00746270D01*
X00745000Y00645000D01*
X00743730Y00645000D01*
X00726270D01*
X00725000Y00645000D01*
X00723730Y00645000D01*
X00705000D01*
Y00626270D01*
X00705000Y00625000D01*
X00705000Y00623730D01*
Y00605000D01*
X00723730D01*
X00725000Y00605000D01*
X00726270Y00605000D01*
X00743730D01*
X00745000Y00605000D01*
X00746270Y00605000D01*
X00763730D01*
X00765000Y00605000D01*
X00766270Y00605000D01*
X00783730D01*
X00784789Y00605000D01*
X00786270Y00605000D01*
X00803730D01*
X00805000Y00605000D01*
X00806270Y00605000D01*
X00823730D01*
X00825000Y00605000D01*
X00826270Y00605000D01*
X00843730D01*
X00845000Y00605000D01*
X00846270Y00605000D01*
X00863730D01*
X00864917Y00605000D01*
X00866270Y00605000D01*
X00885000D01*
Y00623730D01*
X00885000Y00625000D01*
X00885000Y00626270D01*
Y00645000D01*
X00866270D01*
X00865000Y00645000D01*
X00863730Y00645000D01*
X00846270D01*
X00845039Y00645000D01*
X00843730Y00645000D01*
X00826270D01*
X00825000Y00645000D01*
D02*
G37*
G36*
X01142000Y00687000D02*
X01098000D01*
Y00643000D01*
X01142000D01*
Y00687000D01*
D02*
G37*
G36*
X00788700Y01006600D02*
X00769700D01*
Y00979600D01*
X00788700D01*
Y01006600D01*
D02*
G37*
G36*
X00711800Y00951000D02*
X00689800D01*
Y00929000D01*
X00711800D01*
Y00951000D01*
D02*
G37*
G36*
X00686400D02*
X00664400D01*
Y00929000D01*
X00686400D01*
Y00951000D01*
D02*
G37*
G36*
X00890300Y01006600D02*
X00871300D01*
Y00979600D01*
X00890300D01*
Y01006600D01*
D02*
G37*
G36*
X00864900D02*
X00845900D01*
Y00979600D01*
X00864900D01*
Y01006600D01*
D02*
G37*
G36*
X00814100D02*
X00795100D01*
Y00979600D01*
X00814100D01*
Y01006600D01*
D02*
G37*
G36*
X00661000Y00951000D02*
X00639000D01*
Y00929000D01*
X00661000D01*
Y00951000D01*
D02*
G37*
G36*
X00839500Y00930400D02*
X00820500D01*
Y00903400D01*
X00839500D01*
Y00930400D01*
D02*
G37*
G36*
X00788700D02*
X00769700D01*
Y00903400D01*
X00788700D01*
Y00930400D01*
D02*
G37*
G36*
X00763300D02*
X00744300D01*
Y00903400D01*
X00763300D01*
Y00930400D01*
D02*
G37*
G36*
X00635600Y00951000D02*
X00613600D01*
Y00929000D01*
X00635600D01*
Y00951000D01*
D02*
G37*
G36*
X00915700Y00930400D02*
X00896700D01*
Y00903400D01*
X00915700D01*
Y00930400D01*
D02*
G37*
G36*
X00864900D02*
X00845900D01*
Y00903400D01*
X00864900D01*
Y00930400D01*
D02*
G37*
%LPD*%
D10*
X00807500Y00447500D02*
D03*
X00902500D02*
D03*
D11*
X00695000Y00407500D02*
D03*
D12*
X00770000Y00507500D02*
D03*
D13*
X00662500Y00597500D02*
D03*
D14*
X00637500Y00765000D02*
D03*
D15*
X00902500Y00507500D02*
D03*
D16*
X00715000Y00615000D02*
D03*
X00735000D02*
D03*
X00755000D02*
D03*
X00775000D02*
D03*
X00795000Y00615000D02*
D03*
X00815000Y00615000D02*
D03*
X00835000D02*
D03*
X00855000D02*
D03*
X00875000Y00615000D02*
D03*
Y00635000D02*
D03*
X00855000D02*
D03*
X00835000Y00635000D02*
D03*
X00815000Y00635000D02*
D03*
X00795000D02*
D03*
X00775000D02*
D03*
X00755000D02*
D03*
X00735000D02*
D03*
X00715000D02*
D03*
X00875000Y00815000D02*
D03*
Y00835000D02*
D03*
X00855000Y00835000D02*
D03*
Y00815000D02*
D03*
X00835000D02*
D03*
X00815000D02*
D03*
Y00835000D02*
D03*
X00835000D02*
D03*
X00795000D02*
D03*
Y00815000D02*
D03*
X00775000D02*
D03*
Y00835000D02*
D03*
X00755000D02*
D03*
Y00815000D02*
D03*
X00735000D02*
D03*
X00715000D02*
D03*
Y00835000D02*
D03*
X00735000D02*
D03*
D17*
X00760500Y00870500D02*
D03*
X00899500D02*
D03*
X01105000Y00860000D02*
D03*
X01155000D02*
D03*
X01076000Y00474000D02*
D03*
X01126000D02*
D03*
D18*
X01120000Y00588800D02*
D03*
Y00665000D02*
D03*
Y00741200D02*
D03*
D19*
X00555000Y00390000D02*
D03*
Y00430000D02*
D03*
Y00472000D02*
D03*
Y00514000D02*
D03*
Y00556000D02*
D03*
Y00598000D02*
D03*
Y00640000D02*
D03*
Y00682000D02*
D03*
Y00724000D02*
D03*
Y00766000D02*
D03*
Y00808000D02*
D03*
Y00850000D02*
D03*
X00610000Y00766000D02*
D03*
Y00808000D02*
D03*
Y00850000D02*
D03*
Y00724000D02*
D03*
Y00682000D02*
D03*
Y00640000D02*
D03*
Y00598000D02*
D03*
Y00556000D02*
D03*
Y00514000D02*
D03*
Y00472000D02*
D03*
Y00430000D02*
D03*
Y00390000D02*
D03*
D20*
X00700800Y00940000D02*
D03*
X00675400D02*
D03*
X00650000D02*
D03*
X00624600D02*
D03*
X00599200D02*
D03*
D21*
X00906200Y00916900D02*
D03*
X00880800D02*
D03*
X00855400D02*
D03*
X00830000D02*
D03*
X00804600D02*
D03*
X00779200D02*
D03*
X00753800D02*
D03*
X00830000Y00993100D02*
D03*
X00855400D02*
D03*
X00880800D02*
D03*
X00906200D02*
D03*
X00804600D02*
D03*
X00779200D02*
D03*
X00753800D02*
D03*
M02*
