G04 Layer_Physical_Order=2*
G04 Layer_Color=16711680*
%FSLAX44Y44*%
%MOMM*%
G71*
G01*
G75*
%ADD10R,1.2000X1.4000*%
%ADD11R,1.4000X1.2000*%
%ADD12R,0.5500X1.4500*%
%ADD13R,0.5500X1.4500*%
%ADD14R,2.5000X1.5000*%
%ADD15C,0.7000*%
%ADD16R,46.5000X0.6000*%
%ADD17R,2.5000X0.8000*%
%ADD18R,3.0000X4.0000*%
%ADD19R,2.5000X1.7000*%
%ADD20R,2.0000X2.0000*%
%ADD21R,2.8000X2.8000*%
%ADD22R,1.8000X1.8000*%
%ADD23R,1.6000X1.6000*%
G36*
X932460Y873300D02*
X932460Y871835D01*
Y866030D01*
X942000D01*
Y864760D01*
X943270D01*
Y856220D01*
X951540D01*
Y861700D01*
X954002Y863000D01*
X954540Y863000D01*
X956209D01*
X959002Y862500D01*
X959002Y860000D01*
Y840500D01*
X981002D01*
Y847835D01*
X992000D01*
Y845000D01*
X996250D01*
Y833553D01*
X996250Y832122D01*
X996250Y831418D01*
X994550Y829122D01*
X993638Y829122D01*
X992618D01*
Y820602D01*
X996638D01*
Y826987D01*
X996638Y828418D01*
X996638Y829122D01*
X998338Y831418D01*
X999250Y831418D01*
X1005552D01*
X1005750Y828500D01*
X1005750Y828418D01*
Y810000D01*
X1015250D01*
Y813297D01*
X1020284D01*
X1029047Y804534D01*
Y761466D01*
X1010534Y742953D01*
X949000D01*
Y746460D01*
X949540D01*
Y755730D01*
X939000D01*
Y757000D01*
X937730D01*
Y767540D01*
X928460D01*
Y767000D01*
X924953D01*
Y798150D01*
X923210Y802359D01*
X903285Y822284D01*
X902250Y822713D01*
Y828900D01*
X892948D01*
X892750Y831818D01*
X892750Y831885D01*
Y846000D01*
X897000D01*
Y861000D01*
X897000Y864000D01*
X897000Y865000D01*
Y874835D01*
X930096D01*
X932460Y873300D01*
D02*
G37*
G36*
X1042460Y873300D02*
X1042460Y871835D01*
Y866030D01*
X1052000D01*
X1061540D01*
Y871835D01*
X1064387Y873669D01*
X1066002Y872994D01*
Y863000D01*
X1068209D01*
X1071002Y862500D01*
X1071002Y860000D01*
Y840500D01*
X1093001D01*
Y848835D01*
X1102000D01*
Y847000D01*
X1106250D01*
Y835553D01*
X1106250Y834122D01*
X1106250Y833418D01*
X1104550Y831122D01*
X1103638Y831122D01*
X1102618D01*
Y822602D01*
X1106638D01*
Y828987D01*
X1106638Y830418D01*
X1106638Y831122D01*
X1108338Y833418D01*
X1109250Y833418D01*
X1115552D01*
X1115750Y830500D01*
X1115750Y830418D01*
Y824155D01*
X1114547Y821250D01*
Y802966D01*
X1033534Y721953D01*
X930466D01*
X928008Y724411D01*
X929662Y727000D01*
X949000D01*
Y731047D01*
X1013000D01*
X1017209Y732791D01*
X1039210Y754790D01*
X1040953Y759000D01*
Y807000D01*
X1039210Y811209D01*
X1026960Y823459D01*
X1022750Y825203D01*
X1015250D01*
Y828500D01*
X1005948D01*
X1005750Y831418D01*
X1005750Y831485D01*
Y845000D01*
X1010000D01*
Y860000D01*
X1010000Y863000D01*
X1010000Y864000D01*
Y874835D01*
X1040096D01*
X1042460Y873300D01*
D02*
G37*
G36*
X819460Y873300D02*
X819460Y871835D01*
Y866030D01*
X829000D01*
Y864760D01*
X830270D01*
Y856220D01*
X838540D01*
Y860005D01*
X840002Y862400D01*
X842209Y862400D01*
X845002Y861900D01*
X845002Y859400D01*
Y839900D01*
X867002D01*
Y847235D01*
X879000D01*
Y846000D01*
X883250D01*
Y833953D01*
X883250Y832522D01*
X883250Y831818D01*
X881550Y829522D01*
X880638Y829522D01*
X879618D01*
Y821002D01*
X883638D01*
Y827387D01*
X883638Y828818D01*
X883638Y829522D01*
X885338Y831818D01*
X886250Y831818D01*
X892552D01*
X892750Y828900D01*
X892750Y828818D01*
Y810400D01*
X898331D01*
X913047Y795684D01*
Y769121D01*
X910926Y767000D01*
X909000Y767000D01*
X907075D01*
X904953Y769121D01*
Y773000D01*
X903210Y777209D01*
X882209Y798210D01*
X878000Y799953D01*
X813216D01*
X790250Y822919D01*
Y828500D01*
X780948D01*
X780750Y831418D01*
X780750Y831485D01*
Y845000D01*
X785000D01*
Y860000D01*
X785000Y863000D01*
X785000Y864000D01*
Y874835D01*
X817096D01*
X819460Y873300D01*
D02*
G37*
G36*
X1097267Y946314D02*
X1141267Y902314D01*
Y438267D01*
X1088183Y385183D01*
X597000Y386000D01*
X545519Y437481D01*
X546213Y853828D01*
X548000Y856335D01*
X578000D01*
X579531Y856969D01*
X580165Y858500D01*
X583047Y858215D01*
Y836000D01*
X584790Y831790D01*
X606047Y810534D01*
Y585400D01*
Y453000D01*
X607790Y448791D01*
X653791Y402790D01*
X658000Y401047D01*
X705500D01*
Y396500D01*
X734500D01*
Y401047D01*
X833500D01*
Y395500D01*
X862500D01*
Y401047D01*
X953500D01*
Y395500D01*
X982500D01*
Y416500D01*
X953500D01*
Y412953D01*
X862500D01*
Y416500D01*
X833500D01*
Y412953D01*
X734500D01*
Y417500D01*
X705500D01*
Y412953D01*
X660466D01*
X617953Y455466D01*
Y579447D01*
X627600D01*
Y575316D01*
X627060Y572540D01*
X627060Y570624D01*
Y561270D01*
X639600D01*
Y560000D01*
X640870D01*
Y547460D01*
X650224D01*
X652140Y547460D01*
X654916Y548000D01*
X677000D01*
Y554047D01*
X705534D01*
X746790Y512790D01*
X751000Y511047D01*
X751000Y511047D01*
X892000D01*
X896209Y512790D01*
X903210Y519790D01*
X904953Y524000D01*
X904953Y524000D01*
Y524879D01*
X907075Y527000D01*
X909926D01*
X912047Y524879D01*
Y514466D01*
X888534Y490953D01*
X861000D01*
X861000Y490953D01*
X825000D01*
Y494000D01*
X810000D01*
X807000Y494000D01*
X806000Y494000D01*
X791000D01*
Y490953D01*
X758000D01*
X753791Y489210D01*
X715790Y451209D01*
X714047Y447000D01*
Y442900D01*
X705500D01*
Y421900D01*
X734500D01*
Y442900D01*
X728562D01*
X727319Y445900D01*
X760466Y479047D01*
X791000D01*
Y476000D01*
X806000D01*
X809000Y476000D01*
X810000Y476000D01*
X825000D01*
Y479047D01*
X860000D01*
X860000Y479047D01*
X891000D01*
X895210Y480790D01*
X922209Y507790D01*
X923953Y512000D01*
Y524879D01*
X926075Y527000D01*
X928974Y527000D01*
X930926Y527000D01*
X933047Y524879D01*
Y494466D01*
X910581Y472000D01*
X900000D01*
X897000Y472000D01*
X896000Y472000D01*
X881000D01*
Y468953D01*
X859000D01*
X854790Y467210D01*
X843791Y456209D01*
X842047Y452000D01*
Y441900D01*
X833500D01*
Y420900D01*
X862500D01*
Y441900D01*
X853953D01*
Y449534D01*
X861466Y457047D01*
X881000D01*
Y454000D01*
X896000D01*
X899000Y454000D01*
X900000Y454000D01*
X915000D01*
Y459581D01*
X943210Y487790D01*
X944953Y492000D01*
Y527000D01*
X949000D01*
Y544000D01*
X949000Y547000D01*
Y548926D01*
X951121Y551047D01*
X962534D01*
X974047Y539534D01*
Y521000D01*
X971000D01*
Y506000D01*
X971000Y503000D01*
X971000Y502000D01*
Y487000D01*
X974047D01*
Y452466D01*
X963791Y442210D01*
X963662Y441900D01*
X953500D01*
Y420900D01*
X982500D01*
Y441900D01*
X982500D01*
X981861Y443442D01*
X984210Y445790D01*
X985953Y450000D01*
Y487000D01*
X989000D01*
Y502000D01*
X989000Y505000D01*
X989000Y506000D01*
Y521000D01*
X985953D01*
Y542000D01*
X984210Y546209D01*
X969210Y561209D01*
X965000Y562953D01*
X949000D01*
Y567000D01*
X932000D01*
X929000Y567000D01*
X926000Y567000D01*
X912000D01*
X908725Y567000D01*
X905953Y568000D01*
X904210Y572210D01*
X897209Y579210D01*
X893000Y580953D01*
X854598D01*
X854514Y583953D01*
X857302Y584110D01*
X857418Y584165D01*
X857543Y584137D01*
X864633Y585342D01*
X864742Y585410D01*
X864870Y585396D01*
X871781Y587387D01*
X871881Y587467D01*
X872010D01*
X878654Y590219D01*
X878745Y590310D01*
X878873Y590324D01*
X885167Y593803D01*
X885248Y593904D01*
X885373Y593932D01*
X891238Y598094D01*
X891307Y598203D01*
X891428Y598245D01*
X896791Y603038D01*
X896847Y603153D01*
X896962Y603209D01*
X901755Y608572D01*
X901797Y608693D01*
X901906Y608762D01*
X906068Y614627D01*
X906096Y614752D01*
X906197Y614832D01*
X909676Y621127D01*
X909690Y621255D01*
X909781Y621346D01*
X912533Y627990D01*
Y628119D01*
X912613Y628219D01*
X914604Y635130D01*
X914590Y635258D01*
X914658Y635367D01*
X915863Y642457D01*
X915835Y642582D01*
X915890Y642698D01*
X916193Y648082D01*
X916171Y648143D01*
X916196Y648204D01*
Y651796D01*
X916171Y651857D01*
X916193Y651918D01*
X915890Y657302D01*
X915835Y657418D01*
X915863Y657543D01*
X914658Y664633D01*
X914590Y664742D01*
X914604Y664870D01*
X912613Y671781D01*
X912533Y671881D01*
Y672010D01*
X909781Y678654D01*
X909690Y678745D01*
X909676Y678873D01*
X906197Y685167D01*
X906096Y685248D01*
X906068Y685373D01*
X901906Y691238D01*
X901797Y691307D01*
X901755Y691428D01*
X896962Y696791D01*
X896847Y696847D01*
X896791Y696962D01*
X891428Y701755D01*
X891307Y701797D01*
X891238Y701906D01*
X885373Y706068D01*
X885248Y706096D01*
X885167Y706197D01*
X878873Y709676D01*
X878745Y709690D01*
X878654Y709781D01*
X872010Y712533D01*
X871881D01*
X871781Y712613D01*
X864870Y714604D01*
X864742Y714590D01*
X864633Y714658D01*
X857543Y715863D01*
X857418Y715835D01*
X857302Y715890D01*
X851918Y716193D01*
X851857Y716171D01*
X851796Y716196D01*
X848204D01*
X848143Y716171D01*
X848082Y716193D01*
X842698Y715890D01*
X842582Y715835D01*
X842457Y715863D01*
X835367Y714658D01*
X835258Y714590D01*
X835130Y714604D01*
X828219Y712613D01*
X828119Y712533D01*
X827990D01*
X821346Y709781D01*
X821255Y709690D01*
X821127Y709676D01*
X814833Y706197D01*
X814752Y706096D01*
X814627Y706068D01*
X808762Y701906D01*
X808693Y701797D01*
X808572Y701755D01*
X803209Y696962D01*
X803153Y696847D01*
X803038Y696791D01*
X798245Y691428D01*
X798203Y691307D01*
X798094Y691238D01*
X793932Y685373D01*
X793904Y685248D01*
X793803Y685167D01*
X790324Y678873D01*
X790310Y678745D01*
X790219Y678654D01*
X787467Y672010D01*
Y671881D01*
X787387Y671781D01*
X785396Y664870D01*
X785410Y664742D01*
X785342Y664633D01*
X784137Y657543D01*
X784165Y657418D01*
X784110Y657302D01*
X783807Y651918D01*
X783829Y651857D01*
X783804Y651796D01*
Y648204D01*
X783829Y648143D01*
X783807Y648082D01*
X784110Y642698D01*
X784165Y642582D01*
X784137Y642457D01*
X785342Y635367D01*
X785410Y635258D01*
X785396Y635130D01*
X787387Y628219D01*
X787467Y628119D01*
Y627990D01*
X790219Y621346D01*
X790310Y621255D01*
X790324Y621127D01*
X793803Y614832D01*
X793904Y614752D01*
X793932Y614627D01*
X798094Y608762D01*
X798203Y608693D01*
X798245Y608572D01*
X803038Y603209D01*
X803153Y603153D01*
X803209Y603038D01*
X808572Y598245D01*
X808693Y598203D01*
X808762Y598094D01*
X814627Y593932D01*
X814752Y593904D01*
X814833Y593803D01*
X821127Y590324D01*
X821255Y590310D01*
X821346Y590219D01*
X827990Y587467D01*
X828119D01*
X828219Y587387D01*
X835130Y585396D01*
X835258Y585410D01*
X835367Y585342D01*
X842457Y584137D01*
X842582Y584165D01*
X842698Y584110D01*
X845486Y583953D01*
X845402Y580953D01*
X722466D01*
X717000Y586419D01*
Y595000D01*
X714953D01*
Y652000D01*
X717000D01*
Y670000D01*
X702000D01*
X699000Y670000D01*
X698000Y670000D01*
X683000D01*
Y667553D01*
X677000D01*
Y673600D01*
X654916D01*
X652140Y674140D01*
X650224Y674140D01*
X640870D01*
Y661600D01*
X639600D01*
Y660330D01*
X627060D01*
Y650976D01*
X627060Y649060D01*
X627600Y646284D01*
Y625800D01*
X627600Y624200D01*
X627600Y621200D01*
Y600400D01*
X627600Y598800D01*
X627600Y595800D01*
Y591353D01*
X617953D01*
Y810534D01*
X632000Y824581D01*
X635000Y823922D01*
Y818600D01*
X657000D01*
Y819661D01*
X659772Y820809D01*
X710790Y769790D01*
X715000Y768047D01*
X766434D01*
X767693Y767533D01*
X768149Y764224D01*
X766879Y762953D01*
X697466D01*
X657000Y803419D01*
Y815200D01*
X635000D01*
Y793200D01*
X650381D01*
X690790Y752791D01*
X695000Y751047D01*
X766879D01*
X769000Y748925D01*
Y747000D01*
X769000Y744000D01*
Y727000D01*
X786000D01*
X789000Y727000D01*
X792000Y727000D01*
X806000D01*
X809000Y727000D01*
X812000Y727000D01*
X828460D01*
Y726460D01*
X837730D01*
Y737000D01*
X840270D01*
Y726460D01*
X849540D01*
Y727000D01*
X866000D01*
X869000Y727000D01*
X872000Y727000D01*
X886000D01*
X889000Y727000D01*
X892000Y727000D01*
X906000D01*
X909000Y727000D01*
X911047Y727000D01*
X913047Y725000D01*
X914790Y720790D01*
X923791Y711790D01*
X928000Y710047D01*
X1036000D01*
X1040210Y711790D01*
X1124709Y796291D01*
X1126453Y800500D01*
Y821250D01*
X1125250Y824155D01*
Y830500D01*
X1115948D01*
X1115750Y833418D01*
X1115750Y833485D01*
Y847000D01*
X1120000D01*
Y862000D01*
X1120000Y865000D01*
X1120000Y866000D01*
Y876602D01*
X1120165Y877000D01*
Y883000D01*
X1119531Y884531D01*
X1118000Y885165D01*
X1098002D01*
Y894960D01*
X1098542D01*
Y910230D01*
X1082002D01*
X1065462D01*
Y894960D01*
X1066002D01*
Y887006D01*
X1064387Y886331D01*
X1061540Y888165D01*
Y893970D01*
X1052000D01*
Y895240D01*
D01*
Y893970D01*
X1042460D01*
Y888165D01*
X1042460Y886700D01*
X1040096Y885165D01*
X986002D01*
Y894960D01*
X986542D01*
Y910230D01*
X970002D01*
X953462D01*
Y905984D01*
X951540Y903780D01*
X950462Y903780D01*
X943270D01*
Y895240D01*
X942000D01*
Y893970D01*
X932460D01*
Y888165D01*
X932460Y886700D01*
X930096Y885165D01*
X872002D01*
Y894360D01*
X872542D01*
Y909630D01*
X856002D01*
X839462D01*
Y906398D01*
X838540Y903780D01*
X836462Y903780D01*
X830270D01*
Y895240D01*
X829000D01*
Y893970D01*
X819460D01*
Y888165D01*
X819460Y886700D01*
X817096Y885165D01*
X762000D01*
Y894960D01*
X762540D01*
Y910230D01*
X746000D01*
Y911500D01*
D01*
Y910230D01*
X729460D01*
Y903973D01*
X726540Y903780D01*
X726460Y903780D01*
X718270D01*
Y895240D01*
X717000D01*
Y893970D01*
X707460D01*
Y888165D01*
X707460Y886700D01*
X705096Y885165D01*
X657000D01*
Y891260D01*
X657000Y891400D01*
X657338Y894260D01*
X657540D01*
Y904530D01*
X646000D01*
X634460D01*
Y894260D01*
X634662D01*
X635000Y891400D01*
X635000Y891260D01*
Y869400D01*
X657000D01*
Y874835D01*
X705096D01*
X707460Y873300D01*
X707460Y871835D01*
Y866030D01*
X717000D01*
X726540D01*
Y870435D01*
X729084Y872161D01*
X729540Y872219D01*
X730000Y871970D01*
Y863000D01*
X732207D01*
X735000Y862500D01*
X735000Y860000D01*
Y840500D01*
X757000D01*
Y847835D01*
X767000D01*
Y845000D01*
X771250D01*
Y833553D01*
X771250Y832122D01*
X771250Y831418D01*
X769550Y829122D01*
X768638Y829122D01*
X767618D01*
Y820602D01*
X771638D01*
Y826987D01*
X771638Y828418D01*
X771638Y829122D01*
X773338Y831418D01*
X774250Y831418D01*
X780552D01*
X780750Y828500D01*
X780750Y828418D01*
Y822155D01*
X779547Y819250D01*
X780750Y816345D01*
Y810000D01*
X786331D01*
X806541Y789790D01*
X810750Y788047D01*
X875534D01*
X891925Y771656D01*
X891925Y767999D01*
X890926Y767000D01*
X889000D01*
X886000Y767000D01*
X872000D01*
X869000Y767000D01*
X866000Y767000D01*
X852000D01*
X849000Y767000D01*
Y767000D01*
X849000D01*
Y767000D01*
X844953D01*
Y769000D01*
X843210Y773210D01*
X838210Y778210D01*
X834000Y779953D01*
X717466D01*
X662209Y835210D01*
X658000Y836953D01*
X657000D01*
Y840600D01*
X635000D01*
Y836953D01*
X630000D01*
X625790Y835210D01*
X612000Y821419D01*
X594953Y838466D01*
Y865534D01*
X599175Y869756D01*
X601000Y869000D01*
Y869000D01*
X630000D01*
Y887960D01*
X630000Y888000D01*
X630097Y890960D01*
X630540D01*
Y899730D01*
X615500D01*
X600460D01*
Y890960D01*
X600904D01*
X601000Y888000D01*
X601000Y887960D01*
Y884453D01*
X599500D01*
X595290Y882710D01*
X584790Y872209D01*
X583047Y868000D01*
X580165Y868285D01*
Y898500D01*
X579531Y900031D01*
X578000Y900665D01*
X549291D01*
X546637Y902697D01*
X546295Y903206D01*
X546308Y910816D01*
X581958Y947178D01*
X1097267Y946314D01*
D02*
G37*
G36*
X683000Y577000D02*
X698000D01*
X701000Y577000D01*
X702000Y577000D01*
X709581D01*
X715790Y570790D01*
X720000Y569047D01*
X766848D01*
X769000Y567000D01*
X769000Y566047D01*
Y550000D01*
X769000Y547000D01*
X769000Y544000D01*
Y527000D01*
X786000D01*
X789000Y527000D01*
X792000Y527000D01*
X806000D01*
X809000Y527000D01*
X812000Y527000D01*
X826000D01*
X829000Y527000D01*
X832000Y527000D01*
X846000D01*
X848502Y527000D01*
X852000Y527000D01*
X866000D01*
X869000Y527000D01*
X872000Y527000D01*
X886968Y527000D01*
X888514Y524000D01*
X887767Y522953D01*
X753466D01*
X712209Y564210D01*
X708000Y565953D01*
X677000D01*
X677000Y572000D01*
X677000Y575000D01*
Y580047D01*
X683000D01*
Y577000D01*
D02*
G37*
G36*
X683000Y652000D02*
X698000D01*
X701000Y652000D01*
X703047Y649434D01*
Y597121D01*
X700926Y595000D01*
X699000D01*
X698000Y595000D01*
X683000D01*
Y591953D01*
X677000D01*
X677000Y597400D01*
X677000Y600400D01*
Y621200D01*
X677000Y622800D01*
X677000Y625800D01*
Y646600D01*
X677000Y648200D01*
X677000Y651200D01*
Y655647D01*
X683000D01*
Y652000D01*
D02*
G37*
%LPC*%
G36*
X765078Y829122D02*
X761058D01*
Y820602D01*
X765078D01*
Y829122D01*
D02*
G37*
G36*
X883638Y818462D02*
X879618D01*
Y809942D01*
X883638D01*
Y818462D01*
D02*
G37*
G36*
X1100078Y820062D02*
X1096058D01*
Y811542D01*
X1100078D01*
Y820062D01*
D02*
G37*
G36*
X1106638D02*
X1102618D01*
Y811542D01*
X1106638D01*
Y820062D01*
D02*
G37*
G36*
X1100078Y831122D02*
X1096058D01*
Y822602D01*
X1100078D01*
Y831122D01*
D02*
G37*
G36*
X715730Y863490D02*
X707460D01*
Y856220D01*
X715730D01*
Y863490D01*
D02*
G37*
G36*
X990078Y829122D02*
X986058D01*
Y820602D01*
X990078D01*
Y829122D01*
D02*
G37*
G36*
X877078Y829522D02*
X873058D01*
Y821002D01*
X877078D01*
Y829522D01*
D02*
G37*
G36*
X949540Y767540D02*
X940270D01*
Y758270D01*
X949540D01*
Y767540D01*
D02*
G37*
G36*
X765078Y818062D02*
X761058D01*
Y809542D01*
X765078D01*
Y818062D01*
D02*
G37*
G36*
X638330Y558730D02*
X627060D01*
Y547460D01*
X638330D01*
Y558730D01*
D02*
G37*
G36*
Y674140D02*
X627060D01*
Y662870D01*
X638330D01*
Y674140D01*
D02*
G37*
G36*
X996638Y818062D02*
X992618D01*
Y809542D01*
X996638D01*
Y818062D01*
D02*
G37*
G36*
X877078Y818462D02*
X873058D01*
Y809942D01*
X877078D01*
Y818462D01*
D02*
G37*
G36*
X771638Y818062D02*
X767618D01*
Y809542D01*
X771638D01*
Y818062D01*
D02*
G37*
G36*
X990078D02*
X986058D01*
Y809542D01*
X990078D01*
Y818062D01*
D02*
G37*
G36*
X726540Y863490D02*
X718270D01*
Y856220D01*
X726540D01*
Y863490D01*
D02*
G37*
G36*
X854732Y927440D02*
X839462D01*
Y912170D01*
X854732D01*
Y927440D01*
D02*
G37*
G36*
X872542D02*
X857272D01*
Y912170D01*
X872542D01*
Y927440D01*
D02*
G37*
G36*
X657540Y917340D02*
X647270D01*
Y907070D01*
X657540D01*
Y917340D01*
D02*
G37*
G36*
X630540Y911040D02*
X616770D01*
Y902270D01*
X630540D01*
Y911040D01*
D02*
G37*
G36*
X644730Y917340D02*
X634460D01*
Y907070D01*
X644730D01*
Y917340D01*
D02*
G37*
G36*
X968732Y928040D02*
X953462D01*
Y912770D01*
X968732D01*
Y928040D01*
D02*
G37*
G36*
X744730D02*
X729460D01*
Y912770D01*
X744730D01*
Y928040D01*
D02*
G37*
G36*
X762540D02*
X747270D01*
Y912770D01*
X762540D01*
Y928040D01*
D02*
G37*
G36*
X986542D02*
X971272D01*
Y912770D01*
X986542D01*
Y928040D01*
D02*
G37*
G36*
X1080732Y928040D02*
X1065462D01*
Y912770D01*
X1080732D01*
Y928040D01*
D02*
G37*
G36*
X1098542D02*
X1083272D01*
Y912770D01*
X1098542D01*
Y928040D01*
D02*
G37*
G36*
X1061540Y863490D02*
X1053270D01*
Y856220D01*
X1061540D01*
Y863490D01*
D02*
G37*
G36*
X657000Y866000D02*
X635000D01*
Y861953D01*
X630000D01*
Y865500D01*
X601000D01*
Y846500D01*
X630000D01*
Y850047D01*
X635000D01*
Y844000D01*
X657000D01*
Y866000D01*
D02*
G37*
G36*
X1050730Y863490D02*
X1042460D01*
Y856220D01*
X1050730D01*
Y863490D01*
D02*
G37*
G36*
X827730Y863490D02*
X819460D01*
Y856220D01*
X827730D01*
Y863490D01*
D02*
G37*
G36*
X940730D02*
X932460D01*
Y856220D01*
X940730D01*
Y863490D01*
D02*
G37*
G36*
X827730Y903780D02*
X819460D01*
Y896510D01*
X827730D01*
Y903780D01*
D02*
G37*
G36*
X1061540Y903780D02*
X1053270D01*
Y896510D01*
X1061540D01*
Y903780D01*
D02*
G37*
G36*
X614230Y911040D02*
X600460D01*
Y902270D01*
X614230D01*
Y911040D01*
D02*
G37*
G36*
X1050730Y903780D02*
X1042460D01*
Y896510D01*
X1050730D01*
Y903780D01*
D02*
G37*
G36*
X940730Y903780D02*
X932460D01*
Y896510D01*
X940730D01*
Y903780D01*
D02*
G37*
G36*
X715730D02*
X707460D01*
Y896510D01*
X715730D01*
Y903780D01*
D02*
G37*
%LPD*%
D10*
X799000Y485000D02*
D03*
X817000D02*
D03*
X889000Y463000D02*
D03*
X907000D02*
D03*
X709000Y661000D02*
D03*
X691000D02*
D03*
X691000Y586000D02*
D03*
X709000D02*
D03*
D11*
X980000Y495000D02*
D03*
Y513000D02*
D03*
X776000Y871000D02*
D03*
Y853000D02*
D03*
X888000Y872000D02*
D03*
Y854000D02*
D03*
X1001000Y871000D02*
D03*
Y853000D02*
D03*
X1111000Y873000D02*
D03*
Y855000D02*
D03*
X717000Y864760D02*
D03*
Y895240D02*
D03*
X829000Y864760D02*
D03*
Y895240D02*
D03*
X942000Y864760D02*
D03*
Y895240D02*
D03*
X1052000Y864760D02*
D03*
Y895240D02*
D03*
D12*
X785500Y819250D02*
D03*
X897500Y819650D02*
D03*
X1010500Y819250D02*
D03*
X1120500Y821250D02*
D03*
D13*
X766348Y819332D02*
D03*
X776000Y840668D02*
D03*
X878348Y819732D02*
D03*
X888000Y841068D02*
D03*
X991348Y819332D02*
D03*
X1001000Y840668D02*
D03*
X1101348Y821332D02*
D03*
X1111000Y842668D02*
D03*
D14*
X615500Y856000D02*
D03*
Y878500D02*
D03*
Y901000D02*
D03*
D15*
X720000Y431400D02*
Y447000D01*
X758000Y485000D01*
X800000D01*
X907000Y463000D02*
X910000D01*
X968000Y438000D02*
X980000Y450000D01*
X612000Y453000D02*
Y585400D01*
Y453000D02*
X658000Y407000D01*
X969000D01*
X665600Y586000D02*
X691000D01*
X665000Y661600D02*
X690400D01*
X665000Y560000D02*
X708000D01*
X709000Y586000D02*
Y661000D01*
X612000Y585400D02*
X639600D01*
X829000Y843400D02*
X853668Y818732D01*
X829000Y843400D02*
Y863160D01*
X853668Y818732D02*
X876000D01*
X1013000Y819250D02*
X1022750D01*
X1120500Y800500D02*
Y821250D01*
X1052000Y845000D02*
Y863000D01*
Y845000D02*
X1076668Y820332D01*
X1099000D01*
X942000Y844000D02*
Y863760D01*
Y844000D02*
X966668Y819332D01*
X989000D01*
X741668D02*
X764000D01*
X717000Y844000D02*
X741668Y819332D01*
X717000Y844000D02*
Y863760D01*
X630000Y831000D02*
X658000D01*
X612000Y813000D02*
X630000Y831000D01*
X612000Y585400D02*
Y813000D01*
X589000Y836000D02*
X612000Y813000D01*
X589000Y836000D02*
Y868000D01*
X599500Y878500D01*
X615500D01*
Y901000D02*
X641200D01*
X615500Y856000D02*
X645000D01*
X899000Y524000D02*
Y537000D01*
X709000Y586000D02*
X720000Y575000D01*
X708000Y560000D02*
X751000Y517000D01*
X892000D01*
X899000Y524000D01*
X720000Y575000D02*
X893000D01*
X900000Y568000D01*
Y563000D02*
Y568000D01*
X817000Y485000D02*
X861000D01*
X891000Y485000D02*
X918000Y512000D01*
Y537000D01*
X848000Y431400D02*
Y452000D01*
X980000Y450000D02*
Y496000D01*
X860000Y485000D02*
X891000D01*
X848000Y452000D02*
X859000Y463000D01*
X890000D01*
X910000D02*
X939000Y492000D01*
Y537000D01*
Y557000D02*
X965000D01*
X980000Y542000D01*
Y513000D02*
Y542000D01*
X899075Y818075D02*
X919000Y798150D01*
Y757000D02*
Y798150D01*
X839000Y757000D02*
Y769000D01*
X658000Y831000D02*
X715000Y774000D01*
X834000D01*
X839000Y769000D01*
X1022750Y819250D02*
X1035000Y807000D01*
Y759000D02*
Y807000D01*
X649000Y803000D02*
X695000Y757000D01*
X779000D01*
X1013000Y737000D02*
X1035000Y759000D01*
X939000Y737000D02*
X1013000D01*
X1036000Y716000D02*
X1120500Y800500D01*
X928000Y716000D02*
X1036000D01*
X919000Y725000D02*
X928000Y716000D01*
X919000Y725000D02*
Y737000D01*
X899000Y757000D02*
Y773000D01*
X785500Y819250D02*
X810750Y794000D01*
X878000D01*
X899000Y773000D01*
D16*
X885500Y880000D02*
D03*
D17*
X1094500Y855000D02*
D03*
X984500Y854000D02*
D03*
X871500Y853400D02*
D03*
X759500Y854000D02*
D03*
D18*
X563000Y878500D02*
D03*
D19*
X720000Y407000D02*
D03*
Y432400D02*
D03*
X848000Y406000D02*
D03*
Y431400D02*
D03*
X968000Y406000D02*
D03*
Y431400D02*
D03*
D20*
X665000Y560000D02*
D03*
X639600D02*
D03*
X665000Y585400D02*
D03*
X639600D02*
D03*
X665000Y610800D02*
D03*
X639600D02*
D03*
X665000Y636200D02*
D03*
X639600D02*
D03*
X665000Y661600D02*
D03*
X639600D02*
D03*
D21*
X746000Y911500D02*
D03*
Y879000D02*
D03*
X856002Y910900D02*
D03*
Y878400D02*
D03*
X970002Y911500D02*
D03*
Y879000D02*
D03*
X1082002Y911500D02*
D03*
Y879000D02*
D03*
D22*
X746000Y851500D02*
D03*
X856002Y850900D02*
D03*
X970002Y851500D02*
D03*
X1082002Y851500D02*
D03*
X646000Y804200D02*
D03*
Y829600D02*
D03*
Y855000D02*
D03*
Y880400D02*
D03*
Y905800D02*
D03*
D23*
X939000Y737000D02*
D03*
Y757000D02*
D03*
X919000Y757000D02*
D03*
Y737000D02*
D03*
X899000Y757000D02*
D03*
Y737000D02*
D03*
X879000Y757000D02*
D03*
Y737000D02*
D03*
X859000Y757000D02*
D03*
Y737000D02*
D03*
X839000Y757000D02*
D03*
Y737000D02*
D03*
X819000Y757000D02*
D03*
Y737000D02*
D03*
X799000Y757000D02*
D03*
Y737000D02*
D03*
X779000Y757000D02*
D03*
Y737000D02*
D03*
X939000Y537000D02*
D03*
Y557000D02*
D03*
X779000Y537000D02*
D03*
Y557000D02*
D03*
X799000Y537000D02*
D03*
Y557000D02*
D03*
X819000Y537000D02*
D03*
Y557000D02*
D03*
X839000Y537000D02*
D03*
Y557000D02*
D03*
X859000Y537000D02*
D03*
Y557000D02*
D03*
X879000Y537000D02*
D03*
Y557000D02*
D03*
X899000Y537000D02*
D03*
Y557000D02*
D03*
X919000Y557000D02*
D03*
Y537000D02*
D03*
M02*
