G04 Layer_Color=32768*
%FSLAX44Y44*%
%MOMM*%
G71*
G01*
G75*
%ADD22C,0.1000*%
D22*
X1042500Y902860D02*
X1061500D01*
X1042500Y857140D02*
X1061500D01*
X1042500D02*
Y902860D01*
X1061500Y857140D02*
Y902860D01*
X1052000Y875000D02*
Y885000D01*
X1047000Y880000D02*
X1057000D01*
X932500Y902860D02*
X951500D01*
X932500Y857140D02*
X951500D01*
X932500D02*
Y902860D01*
X951500Y857140D02*
Y902860D01*
X942000Y875000D02*
Y885000D01*
X937000Y880000D02*
X947000D01*
X819500Y902860D02*
X838500D01*
X819500Y857140D02*
X838500D01*
X819500D02*
Y902860D01*
X838500Y857140D02*
Y902860D01*
X829000Y875000D02*
Y885000D01*
X824000Y880000D02*
X834000D01*
X707500Y902860D02*
X726500D01*
X707500Y857140D02*
X726500D01*
X707500D02*
Y902860D01*
X726500Y857140D02*
Y902860D01*
X717000Y875000D02*
Y885000D01*
X712000Y880000D02*
X722000D01*
X1101500Y846500D02*
X1120500D01*
X1101500Y881500D02*
X1120500D01*
Y846500D02*
Y881500D01*
X1101500Y846500D02*
Y881500D01*
X1111000Y859000D02*
Y869000D01*
X1106000Y864000D02*
X1116000D01*
X991500Y844500D02*
X1010500D01*
X991500Y879500D02*
X1010500D01*
Y844500D02*
Y879500D01*
X991500Y844500D02*
Y879500D01*
X1001000Y857000D02*
Y867000D01*
X996000Y862000D02*
X1006000D01*
X878500Y845500D02*
X897500D01*
X878500Y880500D02*
X897500D01*
Y845500D02*
Y880500D01*
X878500Y845500D02*
Y880500D01*
X888000Y858000D02*
Y868000D01*
X883000Y863000D02*
X893000D01*
X766500Y844500D02*
X785500D01*
X766500Y879500D02*
X785500D01*
Y844500D02*
Y879500D01*
X766500Y844500D02*
Y879500D01*
X776000Y857000D02*
Y867000D01*
X771000Y862000D02*
X781000D01*
X717500Y576500D02*
Y595500D01*
X682500Y576500D02*
Y595500D01*
X717500D01*
X682500Y576500D02*
X717500D01*
X695000Y586000D02*
X705000D01*
X700000Y581000D02*
Y591000D01*
X682500Y651500D02*
Y670500D01*
X717500Y651500D02*
Y670500D01*
X682500Y651500D02*
X717500D01*
X682500Y670500D02*
X717500D01*
X695000Y661000D02*
X705000D01*
X700000Y656000D02*
Y666000D01*
X1055500Y424500D02*
Y443500D01*
X1020500Y424500D02*
Y443500D01*
X1055500D01*
X1020500Y424500D02*
X1055500D01*
X1033000Y434000D02*
X1043000D01*
X1038000Y429000D02*
Y439000D01*
X915500Y423500D02*
Y442500D01*
X880500Y423500D02*
Y442500D01*
X915500D01*
X880500Y423500D02*
X915500D01*
X893000Y433000D02*
X903000D01*
X898000Y428000D02*
Y438000D01*
X825500Y445500D02*
Y464500D01*
X790500Y445500D02*
Y464500D01*
X825500D01*
X790500Y445500D02*
X825500D01*
X803000Y455000D02*
X813000D01*
X808000Y450000D02*
Y460000D01*
M02*
