G04 Layer_Physical_Order=2*
G04 Layer_Color=16711680*
%FSAX44Y44*%
%MOMM*%
G71*
G01*
G75*
%ADD10R,2.5000X7.5000*%
%ADD23R,6.0000X16.0000*%
%ADD26R,1.6000X1.6000*%
%ADD27R,2.5000X2.5000*%
%ADD28R,4.0000X4.0000*%
%ADD29R,4.4000X3.2000*%
%ADD30R,1.8000X1.8000*%
%ADD31R,1.5000X2.3000*%
%ADD32R,0.9000X2.5000*%
%ADD33R,1.5000X2.5000*%
%ADD34R,0.5500X1.4500*%
%ADD35R,0.5500X1.4500*%
%ADD36R,1.4000X1.2000*%
%ADD37R,1.2000X1.4000*%
%ADD38C,0.7000*%
%ADD39R,3.0000X70.0000*%
%ADD40R,3.0000X9.5000*%
%ADD41R,4.5000X7.5000*%
%ADD42R,9.0000X7.0000*%
%ADD43R,4.0000X22.5000*%
%ADD44R,6.0000X35.5000*%
%ADD45R,7.5000X7.5000*%
%ADD46R,27.5000X5.0000*%
%ADD47R,17.5000X5.0000*%
%ADD48R,6.5000X2.5000*%
%ADD49R,4.0000X11.0000*%
%ADD50R,8.0000X11.5000*%
%ADD51R,16.0000X5.0000*%
%ADD52R,4.5000X6.0000*%
%ADD53R,14.5000X4.0000*%
%ADD54R,4.0000X3.0000*%
%ADD55R,8.5000X3.0000*%
%ADD56R,4.5000X28.5000*%
%ADD57R,22.5000X4.0000*%
%ADD58R,11.5000X9.0000*%
%ADD59R,11.0000X4.5000*%
%ADD60R,6.5000X3.0000*%
%ADD61R,7.0000X3.0000*%
%ADD62R,4.0000X10.0000*%
%ADD63R,6.5000X8.5000*%
%ADD64R,2.5000X22.5000*%
D10*
X00902500Y00447500D02*
D03*
X00807500D02*
D03*
D23*
X01075000Y00465000D02*
D03*
D26*
X00860000Y00750000D02*
D03*
Y00770000D02*
D03*
X00840000Y00770000D02*
D03*
Y00750000D02*
D03*
X00820000Y00770000D02*
D03*
Y00750000D02*
D03*
X00800000Y00770000D02*
D03*
Y00750000D02*
D03*
X00780000Y00770000D02*
D03*
Y00750000D02*
D03*
X00760000Y00770000D02*
D03*
Y00750000D02*
D03*
X00740000Y00770000D02*
D03*
Y00750000D02*
D03*
X00720000Y00770000D02*
D03*
Y00750000D02*
D03*
X00700000Y00770000D02*
D03*
Y00750000D02*
D03*
X00860000Y00550000D02*
D03*
Y00570000D02*
D03*
X00700000Y00550000D02*
D03*
Y00570000D02*
D03*
X00720000Y00550000D02*
D03*
Y00570000D02*
D03*
X00740000Y00550000D02*
D03*
Y00570000D02*
D03*
X00760000Y00550000D02*
D03*
Y00570000D02*
D03*
X00780000Y00550000D02*
D03*
Y00570000D02*
D03*
X00800000Y00550000D02*
D03*
Y00570000D02*
D03*
X00820000Y00550000D02*
D03*
Y00570000D02*
D03*
X00840000Y00570000D02*
D03*
Y00550000D02*
D03*
D27*
X01115000Y00970000D02*
D03*
X01065000D02*
D03*
X01090000Y00400000D02*
D03*
X01140000D02*
D03*
X00725500Y00840500D02*
D03*
X00864500D02*
D03*
D28*
X01120000Y00741200D02*
D03*
Y00665000D02*
D03*
Y00588800D02*
D03*
D29*
X00610000Y00390000D02*
D03*
Y00430000D02*
D03*
Y00472000D02*
D03*
Y00514000D02*
D03*
Y00556000D02*
D03*
Y00598000D02*
D03*
Y00640000D02*
D03*
Y00682000D02*
D03*
Y00724000D02*
D03*
Y00766000D02*
D03*
Y00808000D02*
D03*
X00555000Y00390000D02*
D03*
Y00430000D02*
D03*
Y00472000D02*
D03*
Y00514000D02*
D03*
Y00556000D02*
D03*
Y00598000D02*
D03*
Y00640000D02*
D03*
Y00682000D02*
D03*
Y00724000D02*
D03*
Y00766000D02*
D03*
Y00808000D02*
D03*
X00610000Y00850000D02*
D03*
X00555000D02*
D03*
D30*
X00599200Y00940000D02*
D03*
X00624600D02*
D03*
X00650000D02*
D03*
X00675400D02*
D03*
X00700800D02*
D03*
D31*
X00753800Y00916900D02*
D03*
Y00993100D02*
D03*
X00779200D02*
D03*
X00804600D02*
D03*
X00830000D02*
D03*
X00855400D02*
D03*
X00880800D02*
D03*
X00906200D02*
D03*
Y00916900D02*
D03*
X00880800D02*
D03*
X00855400D02*
D03*
X00830000D02*
D03*
X00804600D02*
D03*
X00779200D02*
D03*
D32*
X00799050Y00615500D02*
D03*
X00786350D02*
D03*
X00773650D02*
D03*
X00760950D02*
D03*
X00799050Y00674500D02*
D03*
X00786350D02*
D03*
X00773650D02*
D03*
X00760950D02*
D03*
D33*
X00560000Y00932500D02*
D03*
X00537500D02*
D03*
X00515000D02*
D03*
D34*
X00669500Y00479250D02*
D03*
D35*
X00650348Y00479332D02*
D03*
X00660000Y00500668D02*
D03*
D36*
X00510000Y00671000D02*
D03*
Y00689000D02*
D03*
X00900000Y00816000D02*
D03*
Y00834000D02*
D03*
X00740000Y00699000D02*
D03*
Y00681000D02*
D03*
X00900000Y00571000D02*
D03*
Y00589000D02*
D03*
D37*
X00584000Y00890000D02*
D03*
X00566000D02*
D03*
X00766000Y00725000D02*
D03*
X00784000D02*
D03*
X00790240Y00700000D02*
D03*
X00759760D02*
D03*
X00801000Y00700000D02*
D03*
X00819000D02*
D03*
X00831000D02*
D03*
X00849000D02*
D03*
X00929000Y00570000D02*
D03*
X00911000D02*
D03*
D38*
X00633000Y00808000D02*
X00665000Y00840000D01*
X00610000Y00808000D02*
X00633000D01*
X00540000Y00894000D02*
X00555000Y00879000D01*
Y00850000D02*
Y00879000D01*
X00566000Y00890000D01*
X00510000Y00725000D02*
X00515000D01*
Y00925000D01*
Y00725000D02*
X00516000Y00724000D01*
X00555000D01*
X00804600Y00993100D02*
Y01019600D01*
X00891600Y00960000D02*
X00910000D01*
X00880800Y00970800D02*
X00891600Y00960000D01*
X00880800Y00970800D02*
Y00993100D01*
X00906200Y00882200D02*
Y00916900D01*
X00625000Y00940400D02*
Y00975000D01*
X00725000D01*
X00729200Y00970800D01*
X00779200D01*
Y00993100D01*
X00675000Y00916900D02*
Y00939600D01*
X00650000Y00940000D02*
Y00960000D01*
X00715000D02*
X00720000Y00955000D01*
X00650000Y00960000D02*
X00715000D01*
X00720000Y00955000D02*
X00840000D01*
X00855400Y00970400D01*
X00830000Y00916900D02*
Y00940000D01*
X00700800D02*
X00830000D01*
X00675000Y00916900D02*
X00753800D01*
X00855400Y00970400D02*
Y00993100D01*
X00669500Y00479250D02*
X00699250D01*
X00700000Y00480000D01*
Y00550000D01*
X00610000Y00514000D02*
X00656000D01*
X00660000Y00510000D01*
Y00500668D02*
Y00510000D01*
X00643016Y00472000D02*
X00650348Y00479332D01*
X00610000Y00472000D02*
X00643016D01*
X00610000Y00724000D02*
X00666000D01*
X00740000Y00650000D02*
X00795000D01*
X00799050Y00654050D01*
Y00674500D01*
X00665000Y00840000D02*
X00725000D01*
X00760000Y00770000D02*
Y00855000D01*
X00720000Y00895000D02*
X00760000Y00855000D01*
X00625000Y00895000D02*
X00720000D01*
X00610000Y00910000D02*
X00625000Y00895000D01*
X00540000Y00910000D02*
X00610000D01*
X00540000Y00894000D02*
Y00910000D01*
Y00925000D01*
X00864500Y00840500D02*
X00906200Y00882200D01*
X00820000Y00770000D02*
Y00790000D01*
X00780000Y00830000D02*
X00820000Y00790000D01*
X00780000Y00830000D02*
Y00916100D01*
X00840000Y00770000D02*
Y00795000D01*
X00815000Y00820000D02*
X00840000Y00795000D01*
X00815000Y00820000D02*
Y00875000D01*
X00825000Y00885000D01*
X00855000D01*
Y00916500D01*
X00880800Y00885800D02*
Y00916900D01*
X00860000Y00865000D02*
X00880800Y00885800D01*
X00835000Y00865000D02*
X00860000D01*
X00835000Y00825000D02*
Y00865000D01*
Y00825000D02*
X00860000Y00800000D01*
Y00770000D02*
Y00800000D01*
X00840000Y00730000D02*
Y00750000D01*
Y00730000D02*
X00880000D01*
X00860000Y00750000D02*
X00870000D01*
X00930000Y00810000D01*
Y00940000D01*
X00910000Y00960000D02*
X00930000Y00940000D01*
X00880000Y00730000D02*
X00950000Y00800000D01*
X00804600Y01019600D02*
X00915400D01*
X00950000Y00985000D01*
Y00800000D02*
Y00985000D01*
X00510000Y00640000D02*
Y00671000D01*
Y00640000D02*
X00555000D01*
X00510000Y00689000D02*
Y00725000D01*
X00864500Y00840500D02*
X00893500D01*
X00900000Y00834000D01*
X00876000Y00816000D02*
X00900000D01*
X00860000Y00800000D02*
X00876000Y00816000D01*
X00740000Y00699000D02*
X00759000D01*
X00760000Y00675450D02*
Y00750000D01*
X00740000Y00650000D02*
Y00681000D01*
X00666000Y00724000D02*
X00740000Y00650000D01*
X00740000Y00650000D01*
X00820000Y00701000D02*
Y00750000D01*
X00849000Y00636000D02*
Y00700000D01*
X00929000Y00551000D02*
Y00570000D01*
X00860000Y00570000D02*
X00899000D01*
X00584000Y00890000D02*
X00585000D01*
X00610000Y00865000D01*
X00560000Y00932500D02*
X00591700D01*
X00605000Y00945800D01*
Y00995000D01*
X00751900D01*
X00786350Y00674500D02*
Y00696110D01*
X00784000Y00719000D02*
Y00725000D01*
X00775000Y00710000D02*
X00784000Y00719000D01*
X00775000Y00675850D02*
Y00710000D01*
D39*
X01165000Y00680000D02*
D03*
D40*
X01060000Y00587500D02*
D03*
D41*
X01067500Y00667500D02*
D03*
D42*
X00920000Y00520000D02*
D03*
D43*
X01130000Y00442500D02*
D03*
D44*
X01115000Y00807500D02*
D03*
D45*
X01117500Y00587500D02*
D03*
D46*
X00922500Y00615000D02*
D03*
D47*
X00692500D02*
D03*
D48*
X00567500Y00557500D02*
D03*
D49*
X00610000Y00600000D02*
D03*
D50*
X01000000Y00417500D02*
D03*
D51*
X01040000Y00355000D02*
D03*
D52*
X01057500Y00985000D02*
D03*
D53*
X01107500Y01010000D02*
D03*
D54*
X00537500Y00985000D02*
D03*
D55*
X00577500Y00640000D02*
D03*
D56*
X00502500Y00472500D02*
D03*
D57*
X00637500Y00350000D02*
D03*
D58*
X00692500Y00410000D02*
D03*
D59*
X00805000Y00507500D02*
D03*
D60*
X00542500Y00515000D02*
D03*
D61*
X00540000Y00600000D02*
D03*
D62*
X00730000Y00480000D02*
D03*
D63*
X00992500Y00512500D02*
D03*
D64*
X01042500Y00592500D02*
D03*
M02*
