M48
;Layer_Color=9474304
;FILE_FORMAT=4:4
METRIC,TZ
;TYPE=PLATED
T1F00S00C0.9000
T2F00S00C1.0000
T3F00S00C2.0000
%
T01
X799000Y537000
X819000
Y557000
X799000
X839000
X859000
Y537000
X839000Y537000
X879000
Y557000
X899000Y557000
Y537000
X919000
Y557000
X939000
Y537000
X939000Y737000
X919000
Y757000
X939000Y757000
X899000
X879000
Y737000
X899000
X859000
Y757000
X839000
X819000
Y737000
X839000
X799000
Y757000
X779000
Y737000
Y557000
Y537000
T02
X848000Y406000
Y431400
X968000
Y406000
X720000Y407000
Y432400
X665000Y560000
X639600
Y585400
X665000
Y610800
X639600
Y636200
X665000
Y661600
X639600
X646000Y804200
Y829600
Y855000
Y880400
Y905800
X746000Y851500
X856002Y850900
X970002Y851500
X1082002Y851500
T03
X746000Y879000
Y911500
X856002Y910900
Y878400
X970002Y879000
Y911500
X1082002Y911500
Y879000
M30
