M48
;Layer_Color=9474304
;FILE_FORMAT=4:4
METRIC
;TYPE=PLATED
T1F00S00C0.9000
T2F00S00C1.0000
T3F00S00C1.3000
T4F00S00C2.0000
%
T01
X00800000Y00550000
Y00570000
X00820000Y00570000
Y00550000
X00840000
Y00570000
X00860000
Y00550000
X00860000Y00750000
X00840000
Y00770000
X00860000Y00770000
X00820000
X00800000
Y00750000
X00820000
X00780000
Y00770000
X00760000
X00740000
Y00750000
X00760000
X00720000
X00700000
Y00770000
X00720000
X00720000Y00570000
X00740000
Y00550000
X00720000
X00700000
Y00570000
X00760000
X00780000
Y00550000
X00760000Y00550000
T02
X00599200Y00940000
X00624600
X00650000
X00675400
X00700800
X00753800Y00916900
X00779200
Y00993100
X00753800
X00725500Y00840500
X00864500
X00855400Y00916900
X00880800
X00906200
Y00993100
X00880800
X00855400
X00830000
X00804600
Y00916900
X00830000
T03
X01090000Y00400000
X01140000
X01120000Y00588800
Y00665000
Y00741200
X01115000Y00970000
X01065000
T04
X00555000Y00390000
X00610000
Y00430000
Y00472000
Y00514000
Y00556000
Y00598000
Y00640000
Y00682000
Y00724000
Y00766000
X00555000
Y00724000
Y00682000
Y00640000
Y00598000
Y00556000
Y00514000
Y00472000
Y00430000
Y00808000
Y00850000
X00610000
Y00808000
M30
