M48
;Layer_Color=9474304
;FILE_FORMAT=4:4
METRIC
;TYPE=PLATED
T1F00S00C0.9000
T2F00S00C1.0000
T3F00S00C1.3000
T4F00S00C2.0000
%
T01
X00795000Y00615000
Y00635000
X00815000
Y00615000
X00835000
Y00635000
X00855000Y00635000
X00875000
Y00615000
X00855000Y00615000
X00775000
X00755000
X00735000
X00715000
Y00635000
X00735000
X00755000
X00775000
X00775000Y00815000
X00755000
Y00835000
X00775000
X00735000
X00715000
Y00815000
X00735000
X00795000
X00815000
X00835000
X00855000
X00875000
Y00835000
X00855000Y00835000
X00835000Y00835000
X00815000
X00795000
T02
X00599200Y00940000
X00624600
X00650000
X00675400
X00700800
X00753800Y00916900
X00779200
X00760500Y00870500
X00753800Y00993100
X00779200
X00804600
X00830000
X00855400
X00880800
X00906200
Y00916900
X00880800
X00855400
X00830000
X00804600
X00899500Y00870500
T03
X01076000Y00474000
X01126000
X01120000Y00588800
Y00665000
Y00741200
X01105000Y00860000
X01155000
T04
X00555000Y00390000
X00610000
Y00430000
Y00472000
Y00514000
Y00556000
Y00598000
Y00640000
Y00682000
Y00724000
Y00766000
X00555000
Y00724000
Y00682000
Y00640000
Y00598000
Y00556000
Y00514000
Y00472000
Y00430000
Y00808000
Y00850000
X00610000
Y00808000
M30
