M48
;Layer_Color=9474304
;FILE_FORMAT=4:4
METRIC
;TYPE=PLATED
T1F00S00C0.9000
T2F00S00C1.0000
T3F00S00C1.3000
T4F00S00C2.0000
%
T01
X01252874Y00583139
X01272874
X01292874
X01312874
X01332874Y00583139
Y00603139
X01312874
X01292874
X01272874
X01252874
X01352874
Y00583139
X01372874
X01392874
Y00603139
X01372874Y00603139
X01412874Y00603139
Y00583139
X01412874Y00783139
X01392874
X01372874
X01352874
X01332874
X01312874
X01292874
X01272874
X01252874
X00682874
X00662874
X00642874
X00622874
X00602874
X00582874
X00562874
X00542874
X00522874
Y00603139
X00542874
X00562874
X00582874
X00602874
Y00583139
X00582874Y00583139
X00562874
X00542874
X00522874
X00622874
X00642874
X00662874
Y00603139
X00642874Y00603139
X00622874Y00603139
X00682874
Y00583139
X00682874Y00803139
X00662874Y00803139
X00642874Y00803139
X00622874
X00602874
X00582874
X00562874
X00542874
X00522874
X01252874
X01272874
X01292874
X01312874
X01332874
X01352874
X01372874
X01392874Y00803139
X01412874Y00803139
X01412874Y01313139
Y01333139
X01392874
Y01313139
X01372874
Y01333139
X01352874Y01333139
Y01313139
X01332874Y01313139
Y01333139
X01312874
Y01313139
X01292874
X01272874
Y01333139
X01292874
X01252874
Y01313139
Y01513139
X01272874
Y01533139
X01252874
X01292874
X01312874
Y01513139
X01292874
X01332874
Y01533139
X01352874
X01372874
Y01513139
X01352874
X01392874
Y01533139
X01412874Y01533139
Y01513139
X00682874
X00662874
Y01533139
X00682874Y01533139
X00642874
X00622874
X00602874
X00582874
X00562874
X00542874
X00522874
Y01513139
X00542874
X00562874
X00582874
X00602874
X00622874
X00642874
X00642874Y01333139
Y01313139
X00662874
Y01333139
X00682874
Y01313139
X00622874Y01313139
Y01333139
X00602874
Y01313139
X00582874Y01313139
Y01333139
X00562874
X00542874
Y01313139
X00562874
X00522874
Y01333139
T02
X00407074Y00908139
X00432474
X00457874
X00483274
X00508674
X00561674Y00885039
X00587074
X00612474
X00637874
X00663274
X00688674
X00714074
X00707374Y00838639
X00714074Y00961239
X00688674
X00663274
X00637874
X00612474
X00587074
X00561674
X00568374Y00838639
X01137074Y00908139
X01162474
X01187874
X01213274
X01238674
X01291674Y00885039
X01317074
X01342474
X01367874
X01393274
X01418674
X01444074
X01437374Y00838639
X01444074Y00961239
X01418674
X01393274
X01367874
X01342474
X01317074
X01291674
X01298374Y00838639
Y01568639
X01437374
X00707374
X00568374
X00561674Y01615039
X00587074
X00612474
X00637874
X00663274
X00688674
X00714074
Y01691239
X00688674
X00663274
X00637874
X00612474
X00587074
X00561674
X00508674Y01638139
X00483274
X00457874
X00432474
X00407074
X01137074
X01162474
X01187874
X01213274
X01238674
X01291674Y01615039
X01317074
X01342474
X01367874
X01393274
X01418674
X01444074
Y01691239
X01418674
X01393274
X01367874
X01342474
X01317074
X01291674
T03
X01613874Y00442139
X01663874
X01657874Y00556939
Y00633139
Y00709339
X00927874
Y00633139
Y00556939
X00933874Y00442139
X00883874
X00912874Y00828139
X00962874
X00933874Y01172139
X00883874
X01613874
X01663874
X01642874Y00828139
X01692874
X01657874Y01286939
Y01363139
Y01439339
X01642874Y01558139
X01692874
X00962874
X00912874
X00927874Y01439339
Y01363139
Y01286939
T04
X00362874Y00358139
X00417874
X01092874
X01147874
Y00398139
Y00440139
Y00482139
Y00524139
Y00566139
Y00608139
Y00650139
Y00692139
Y00734139
Y00776139
X01092874
Y00734139
Y00692139
Y00650139
Y00608139
Y00566139
Y00524139
Y00482139
Y00440139
Y00398139
X00417874
Y00440139
Y00482139
Y00524139
Y00566139
Y00608139
Y00650139
Y00692139
Y00734139
Y00776139
X00362874
Y00734139
Y00692139
Y00650139
Y00608139
Y00566139
Y00524139
Y00482139
Y00440139
Y00398139
Y00818139
Y01088139
Y01128139
Y01170139
X00417874
Y01128139
Y01088139
Y00818139
X01092874
X01147874
Y01088139
Y01128139
Y01170139
X01092874
Y01128139
Y01088139
Y01212139
Y01254139
Y01296139
Y01338139
Y01380139
Y01422139
Y01464139
Y01506139
Y01548139
X01147874
Y01506139
Y01464139
Y01422139
Y01380139
Y01338139
Y01296139
Y01254139
Y01212139
X00417874
Y01254139
Y01296139
Y01338139
Y01380139
Y01422139
Y01464139
Y01506139
Y01548139
X00362874
Y01506139
Y01464139
Y01422139
Y01380139
Y01338139
Y01296139
Y01254139
Y01212139
M30
