G04 Layer_Color=16711935*
%FSAX44Y44*%
%MOMM*%
G71*
G01*
G75*
%ADD57C,0.2540*%
D57*
X00287874Y00298139D02*
Y00998139D01*
X00987874D01*
Y00298139D01*
X00767874D01*
Y00453139D01*
X00722874D01*
Y00378139D01*
X00697874D01*
Y00453139D01*
X00627874D01*
Y00378139D01*
X00602874D01*
Y00453139D01*
X00557874D01*
Y00298139D01*
X00287874D01*
X01017874D02*
Y00998139D01*
X01717874D01*
Y00298139D01*
X01497874D01*
Y00453139D01*
X01452874D01*
Y00378139D01*
X01427874D01*
Y00453139D01*
X01357874D01*
Y00378139D01*
X01332874D01*
Y00453139D01*
X01287874D01*
Y00298139D01*
X01017874D01*
X01717874Y01028139D02*
Y01728139D01*
X01017874D01*
Y01028139D01*
X01287874D01*
Y01183139D01*
X01332874D01*
Y01108139D01*
X01357874D01*
Y01183139D01*
X01427874D01*
Y01108139D01*
X01452874D01*
Y01183139D01*
X01497874D01*
Y01028139D01*
X01717874D01*
X00987874Y01728139D02*
Y01028139D01*
X00767874D01*
Y01183139D01*
X00722874D01*
Y01108139D01*
X00697874D01*
Y01183139D01*
X00627874D01*
Y01108139D01*
X00602874D01*
Y01183139D01*
X00557874D01*
Y01028139D01*
X00287874D01*
Y01728139D01*
X00987874D01*
M02*
