G04 Layer_Physical_Order=2*
G04 Layer_Color=16711680*
%FSAX44Y44*%
%MOMM*%
G71*
G01*
G75*
%ADD10R,2.5000X7.5000*%
%ADD13R,4.5000X22.5000*%
%ADD16R,1.5000X2.3000*%
%ADD17R,2.5000X2.5000*%
%ADD18R,1.8000X1.8000*%
%ADD19R,4.4000X3.2000*%
%ADD20R,4.0000X4.0000*%
%ADD21R,1.6000X1.6000*%
%ADD22R,1.4000X1.2000*%
%ADD23R,1.2000X1.4000*%
%ADD24R,0.5500X1.4500*%
%ADD25R,0.5500X1.4500*%
%ADD26R,1.5000X2.5000*%
%ADD27R,0.9000X2.5000*%
%ADD28C,0.6000*%
%ADD29C,0.7000*%
%ADD30R,6.5000X17.0000*%
%ADD31R,7.0000X3.0000*%
%ADD32R,6.5000X3.0000*%
%ADD33R,11.0000X4.5000*%
%ADD34R,22.5000X4.0000*%
%ADD35R,4.5000X28.5000*%
%ADD36R,8.5000X3.0000*%
%ADD37R,4.0000X3.0000*%
%ADD38R,16.0000X12.2000*%
%ADD39R,8.0000X11.5000*%
%ADD40R,4.0000X11.0000*%
%ADD41R,6.5000X2.5000*%
%ADD42R,15.3000X6.5000*%
%ADD43R,25.3000X6.6000*%
%ADD44R,7.5000X15.0000*%
%ADD45R,4.0000X22.5000*%
%ADD46R,9.0000X11.5000*%
%ADD47R,6.0000X7.5000*%
%ADD48R,6.0000X8.9000*%
%ADD49R,3.0000X9.5000*%
%ADD50R,3.0000X70.0000*%
%ADD51R,3.0000X4.0000*%
%ADD52R,2.9000X1.2000*%
%ADD53R,1.4000X1.6000*%
%ADD54R,4.0000X10.0000*%
%ADD55R,11.5000X9.0000*%
%ADD56R,5.5000X26.5000*%
G36*
X00666874Y00565139D02*
X00667874Y00564725D01*
Y00498139D01*
X00599874D01*
X00558208Y00456473D01*
X00557874D01*
X00556598Y00456219D01*
X00555517Y00455497D01*
X00554794Y00454415D01*
X00554540Y00453139D01*
Y00452805D01*
X00522874Y00421139D01*
X00484874D01*
Y00484139D01*
X00536874Y00536139D01*
X00537874Y00537139D01*
Y00565139D01*
X00666874D01*
D02*
G37*
G36*
X00509874Y00548139D02*
Y00543139D01*
X00475874Y00509139D01*
X00431801D01*
X00430931Y00510064D01*
X00437874Y00623139D01*
X00509874D01*
Y00548139D01*
D02*
G37*
G36*
X00930835Y00733139D02*
X00930990Y00732359D01*
X00931432Y00731697D01*
X00932094Y00731255D01*
X00932874Y00731100D01*
X00952874D01*
Y00673139D01*
X00692874D01*
Y00738139D01*
X00777874Y00823139D01*
Y00994805D01*
X00930835D01*
Y00733139D01*
D02*
G37*
G36*
X01396874Y00565139D02*
X01397874Y00564725D01*
Y00498139D01*
X01329874D01*
X01288208Y00456473D01*
X01287874D01*
X01286598Y00456219D01*
X01285517Y00455497D01*
X01284794Y00454415D01*
X01284540Y00453139D01*
Y00452805D01*
X01252874Y00421139D01*
X01214874D01*
Y00484139D01*
X01266874Y00536139D01*
X01267874Y00537139D01*
Y00565139D01*
X01396874D01*
D02*
G37*
G36*
X01239874Y00548139D02*
Y00543139D01*
X01205874Y00509139D01*
X01161801D01*
X01160931Y00510064D01*
X01167874Y00623139D01*
X01239874D01*
Y00548139D01*
D02*
G37*
G36*
X01660835Y00733139D02*
X01660990Y00732359D01*
X01661432Y00731697D01*
X01662094Y00731255D01*
X01662874Y00731100D01*
X01682874D01*
Y00673139D01*
X01422874D01*
Y00738139D01*
X01507874Y00823139D01*
Y00994805D01*
X01660835D01*
Y00733139D01*
D02*
G37*
G36*
X00666874Y01295139D02*
X00667874Y01294725D01*
Y01228139D01*
X00599874D01*
X00558208Y01186473D01*
X00557874D01*
X00556598Y01186219D01*
X00555517Y01185497D01*
X00554794Y01184415D01*
X00554540Y01183139D01*
Y01182805D01*
X00522874Y01151139D01*
X00484874D01*
Y01214139D01*
X00536874Y01266139D01*
X00537874Y01267139D01*
Y01295139D01*
X00666874D01*
D02*
G37*
G36*
X00509874Y01278139D02*
Y01273139D01*
X00475874Y01239139D01*
X00431801D01*
X00430931Y01240064D01*
X00437874Y01353139D01*
X00509874D01*
Y01278139D01*
D02*
G37*
G36*
X00930835Y01463139D02*
X00930990Y01462359D01*
X00931432Y01461697D01*
X00932094Y01461255D01*
X00932874Y01461100D01*
X00952874D01*
Y01403139D01*
X00692874D01*
Y01468139D01*
X00777874Y01553139D01*
Y01724805D01*
X00930835D01*
Y01463139D01*
D02*
G37*
G36*
X01396874Y01295139D02*
X01397874Y01294725D01*
Y01228139D01*
X01329874D01*
X01288208Y01186473D01*
X01287874D01*
X01286598Y01186219D01*
X01285517Y01185497D01*
X01284794Y01184415D01*
X01284540Y01183139D01*
Y01182805D01*
X01252874Y01151139D01*
X01214874D01*
Y01214139D01*
X01266874Y01266139D01*
X01267874Y01267139D01*
Y01295139D01*
X01396874D01*
D02*
G37*
G36*
X01239874Y01278139D02*
Y01273139D01*
X01205874Y01239139D01*
X01161801D01*
X01160931Y01240064D01*
X01167874Y01353139D01*
X01239874D01*
Y01278139D01*
D02*
G37*
G36*
X01660835Y01463139D02*
X01660990Y01462359D01*
X01661432Y01461697D01*
X01662094Y01461255D01*
X01662874Y01461100D01*
X01682874D01*
Y01403139D01*
X01422874D01*
Y01468139D01*
X01507874Y01553139D01*
Y01724805D01*
X01660835D01*
Y01463139D01*
D02*
G37*
D10*
X00615374Y00415639D02*
D03*
X00710374D02*
D03*
X01345374D02*
D03*
X01440374D02*
D03*
Y01145639D02*
D03*
X01345374D02*
D03*
X00710374D02*
D03*
X00615374D02*
D03*
D13*
X00860374Y00560639D02*
D03*
Y01290639D02*
D03*
X01590374Y00560639D02*
D03*
Y01290639D02*
D03*
D16*
X00714074Y00885039D02*
D03*
X00688674D02*
D03*
X00663274D02*
D03*
X00637874D02*
D03*
X00612474D02*
D03*
X00587074D02*
D03*
X00561674D02*
D03*
X00637874Y00961239D02*
D03*
X00663274D02*
D03*
X00688674D02*
D03*
X00714074D02*
D03*
X00612474D02*
D03*
X00587074D02*
D03*
X00561674D02*
D03*
X00714074Y01615039D02*
D03*
X00688674D02*
D03*
X00663274D02*
D03*
X00637874D02*
D03*
X00612474D02*
D03*
X00587074D02*
D03*
X00561674D02*
D03*
X00637874Y01691239D02*
D03*
X00663274D02*
D03*
X00688674D02*
D03*
X00714074D02*
D03*
X00612474D02*
D03*
X00587074D02*
D03*
X00561674D02*
D03*
X01291674Y00961239D02*
D03*
X01317074D02*
D03*
X01342474D02*
D03*
X01367874D02*
D03*
X01393274D02*
D03*
X01418674D02*
D03*
X01444074D02*
D03*
X01393274Y00885039D02*
D03*
X01418674D02*
D03*
X01444074D02*
D03*
X01367874D02*
D03*
X01342474D02*
D03*
X01317074D02*
D03*
X01291674D02*
D03*
X01418674Y01615039D02*
D03*
X01444074D02*
D03*
X01393274D02*
D03*
X01367874D02*
D03*
X01342474D02*
D03*
X01317074D02*
D03*
X01291674D02*
D03*
X01367874Y01691239D02*
D03*
X01393274D02*
D03*
X01418674D02*
D03*
X01444074D02*
D03*
X01342474D02*
D03*
X01317074D02*
D03*
X01291674D02*
D03*
D17*
X00707374Y00838639D02*
D03*
X00568374D02*
D03*
X00883874Y01172139D02*
D03*
X00933874D02*
D03*
X00912874Y00828139D02*
D03*
X00962874D02*
D03*
X01298374Y00838639D02*
D03*
X01437374D02*
D03*
X01642874Y00828139D02*
D03*
X01692874D02*
D03*
X01663874Y01172139D02*
D03*
X01613874D02*
D03*
X01692874Y01558139D02*
D03*
X01642874D02*
D03*
X01437374Y01568639D02*
D03*
X01298374D02*
D03*
X00962874Y01558139D02*
D03*
X00912874D02*
D03*
X00707374Y01568639D02*
D03*
X00568374D02*
D03*
X00883874Y00442139D02*
D03*
X00933874D02*
D03*
X01613874D02*
D03*
X01663874D02*
D03*
D18*
X00508674Y00908139D02*
D03*
X00483274D02*
D03*
X00457874D02*
D03*
X00432474D02*
D03*
X00407074D02*
D03*
X01137074D02*
D03*
X01162474D02*
D03*
X01187874D02*
D03*
X01213274D02*
D03*
X01238674D02*
D03*
Y01638139D02*
D03*
X01213274D02*
D03*
X01187874D02*
D03*
X01162474D02*
D03*
X01137074D02*
D03*
X00508674D02*
D03*
X00483274D02*
D03*
X00457874D02*
D03*
X00432474D02*
D03*
X00407074D02*
D03*
D19*
X00362874Y00358139D02*
D03*
Y00398139D02*
D03*
Y00440139D02*
D03*
Y00482139D02*
D03*
X00417874Y00398139D02*
D03*
Y00358139D02*
D03*
Y00440139D02*
D03*
Y00482139D02*
D03*
Y00524139D02*
D03*
Y00566139D02*
D03*
Y00608139D02*
D03*
Y00650139D02*
D03*
Y00692139D02*
D03*
Y00734139D02*
D03*
Y00776139D02*
D03*
Y00818139D02*
D03*
X00362874D02*
D03*
Y00776139D02*
D03*
Y00734139D02*
D03*
Y00692139D02*
D03*
Y00650139D02*
D03*
Y00608139D02*
D03*
Y00566139D02*
D03*
Y00524139D02*
D03*
X00417874Y01088139D02*
D03*
Y01128139D02*
D03*
Y01170139D02*
D03*
Y01212139D02*
D03*
Y01254139D02*
D03*
Y01296139D02*
D03*
Y01338139D02*
D03*
Y01380139D02*
D03*
Y01422139D02*
D03*
Y01464139D02*
D03*
Y01506139D02*
D03*
Y01548139D02*
D03*
X00362874D02*
D03*
Y01506139D02*
D03*
Y01464139D02*
D03*
Y01422139D02*
D03*
Y01380139D02*
D03*
Y01338139D02*
D03*
Y01296139D02*
D03*
Y01254139D02*
D03*
Y01212139D02*
D03*
Y01170139D02*
D03*
Y01128139D02*
D03*
Y01088139D02*
D03*
X01092874Y00358139D02*
D03*
Y00398139D02*
D03*
Y00440139D02*
D03*
Y00482139D02*
D03*
X01147874Y00398139D02*
D03*
Y00358139D02*
D03*
Y00440139D02*
D03*
Y00482139D02*
D03*
Y00524139D02*
D03*
Y00566139D02*
D03*
Y00608139D02*
D03*
Y00650139D02*
D03*
Y00692139D02*
D03*
Y00734139D02*
D03*
Y00776139D02*
D03*
Y00818139D02*
D03*
X01092874D02*
D03*
Y00776139D02*
D03*
Y00734139D02*
D03*
Y00692139D02*
D03*
Y00650139D02*
D03*
Y00608139D02*
D03*
Y00566139D02*
D03*
Y00524139D02*
D03*
X01147874Y01088139D02*
D03*
Y01128139D02*
D03*
Y01170139D02*
D03*
Y01212139D02*
D03*
Y01254139D02*
D03*
Y01296139D02*
D03*
Y01338139D02*
D03*
Y01380139D02*
D03*
Y01422139D02*
D03*
Y01464139D02*
D03*
Y01506139D02*
D03*
Y01548139D02*
D03*
X01092874D02*
D03*
Y01506139D02*
D03*
Y01464139D02*
D03*
Y01422139D02*
D03*
Y01380139D02*
D03*
Y01338139D02*
D03*
Y01296139D02*
D03*
Y01254139D02*
D03*
Y01212139D02*
D03*
Y01170139D02*
D03*
Y01128139D02*
D03*
Y01088139D02*
D03*
D20*
X00927874Y00556939D02*
D03*
Y00633139D02*
D03*
Y00709339D02*
D03*
Y01286939D02*
D03*
Y01363139D02*
D03*
Y01439339D02*
D03*
X01657874Y00709339D02*
D03*
Y00633139D02*
D03*
Y00556939D02*
D03*
Y01286939D02*
D03*
Y01363139D02*
D03*
Y01439339D02*
D03*
D21*
X00562874Y00583139D02*
D03*
X00582874D02*
D03*
X00602874Y00583139D02*
D03*
X00622874Y00583139D02*
D03*
X00642874D02*
D03*
X00662874D02*
D03*
X00682874Y00583139D02*
D03*
Y00603139D02*
D03*
X00662874D02*
D03*
X00642874Y00603139D02*
D03*
X00622874Y00603139D02*
D03*
X00602874D02*
D03*
X00582874D02*
D03*
X00562874D02*
D03*
X00542874D02*
D03*
X00522874D02*
D03*
Y00583139D02*
D03*
X00542874D02*
D03*
X00662874Y00783139D02*
D03*
X00682874D02*
D03*
Y00803139D02*
D03*
X00662874Y00803139D02*
D03*
X00642874Y00803139D02*
D03*
X00622874D02*
D03*
Y00783139D02*
D03*
X00642874D02*
D03*
X00602874Y00803139D02*
D03*
Y00783139D02*
D03*
X00582874Y00803139D02*
D03*
X00562874D02*
D03*
Y00783139D02*
D03*
X00582874D02*
D03*
X00542874Y00803139D02*
D03*
X00522874D02*
D03*
Y00783139D02*
D03*
X00542874D02*
D03*
X00662874Y01313139D02*
D03*
X00682874Y01313139D02*
D03*
Y01333139D02*
D03*
X00662874D02*
D03*
X00642874Y01333139D02*
D03*
X00622874Y01333139D02*
D03*
Y01313139D02*
D03*
X00642874D02*
D03*
X00602874Y01333139D02*
D03*
Y01313139D02*
D03*
X00582874Y01333139D02*
D03*
X00562874D02*
D03*
Y01313139D02*
D03*
X00582874D02*
D03*
X00542874Y01333139D02*
D03*
X00522874D02*
D03*
Y01313139D02*
D03*
X00542874D02*
D03*
X00662874Y01513139D02*
D03*
X00682874D02*
D03*
Y01533139D02*
D03*
X00662874Y01533139D02*
D03*
X00642874Y01533139D02*
D03*
X00622874D02*
D03*
Y01513139D02*
D03*
X00642874D02*
D03*
X00602874Y01533139D02*
D03*
Y01513139D02*
D03*
X00582874Y01533139D02*
D03*
X00562874D02*
D03*
Y01513139D02*
D03*
X00582874D02*
D03*
X00542874Y01533139D02*
D03*
X00522874D02*
D03*
Y01513139D02*
D03*
X00542874D02*
D03*
X01252874Y00783139D02*
D03*
X01272874D02*
D03*
X01292874D02*
D03*
X01312874D02*
D03*
X01332874D02*
D03*
X01352874D02*
D03*
X01372874D02*
D03*
X01392874D02*
D03*
X01412874D02*
D03*
Y00803139D02*
D03*
X01392874Y00803139D02*
D03*
X01372874Y00803139D02*
D03*
X01352874D02*
D03*
X01332874D02*
D03*
X01312874D02*
D03*
X01292874D02*
D03*
X01272874D02*
D03*
X01252874D02*
D03*
Y00603139D02*
D03*
X01272874D02*
D03*
Y00583139D02*
D03*
X01252874D02*
D03*
X01292874D02*
D03*
X01312874D02*
D03*
X01332874Y00583139D02*
D03*
X01352874Y00583139D02*
D03*
X01372874D02*
D03*
X01392874D02*
D03*
X01412874Y00583139D02*
D03*
Y00603139D02*
D03*
X01392874D02*
D03*
X01372874Y00603139D02*
D03*
X01352874Y00603139D02*
D03*
X01332874D02*
D03*
X01312874D02*
D03*
X01292874D02*
D03*
X01392874Y01313139D02*
D03*
X01412874Y01313139D02*
D03*
Y01333139D02*
D03*
X01392874D02*
D03*
X01372874Y01333139D02*
D03*
X01352874Y01333139D02*
D03*
Y01313139D02*
D03*
X01372874D02*
D03*
X01332874Y01333139D02*
D03*
Y01313139D02*
D03*
X01312874Y01333139D02*
D03*
X01292874D02*
D03*
Y01313139D02*
D03*
X01312874D02*
D03*
X01272874Y01333139D02*
D03*
X01252874D02*
D03*
Y01313139D02*
D03*
X01272874D02*
D03*
X01392874Y01513139D02*
D03*
X01412874D02*
D03*
Y01533139D02*
D03*
X01392874Y01533139D02*
D03*
X01372874Y01533139D02*
D03*
X01352874D02*
D03*
Y01513139D02*
D03*
X01372874D02*
D03*
X01332874Y01533139D02*
D03*
Y01513139D02*
D03*
X01312874Y01533139D02*
D03*
X01292874D02*
D03*
Y01513139D02*
D03*
X01312874D02*
D03*
X01272874Y01533139D02*
D03*
X01252874D02*
D03*
Y01513139D02*
D03*
X01272874D02*
D03*
D22*
X00317874Y00639139D02*
D03*
Y00657139D02*
D03*
X00562874Y00714139D02*
D03*
Y00732139D02*
D03*
X00722874Y00617139D02*
D03*
Y00599139D02*
D03*
Y00587139D02*
D03*
Y00569139D02*
D03*
X01047874Y00639139D02*
D03*
Y00657139D02*
D03*
X01292874Y00714139D02*
D03*
Y00732139D02*
D03*
X01452874Y00587139D02*
D03*
Y00569139D02*
D03*
Y00599139D02*
D03*
Y00617139D02*
D03*
Y01299139D02*
D03*
Y01317139D02*
D03*
Y01329139D02*
D03*
Y01347139D02*
D03*
X01292874Y01462139D02*
D03*
Y01444139D02*
D03*
X01047874Y01387139D02*
D03*
Y01369139D02*
D03*
X00722874Y01347139D02*
D03*
Y01329139D02*
D03*
Y01317139D02*
D03*
Y01299139D02*
D03*
X00562874Y01444139D02*
D03*
Y01462139D02*
D03*
X00317874Y01387139D02*
D03*
Y01369139D02*
D03*
D23*
X00671874Y00733139D02*
D03*
X00653874D02*
D03*
X00641874D02*
D03*
X00623874D02*
D03*
X00613114Y00733139D02*
D03*
X00606874Y00758139D02*
D03*
X00588874D02*
D03*
X00582634Y00733139D02*
D03*
X00688874Y00863139D02*
D03*
X00706874D02*
D03*
X00391874Y00858139D02*
D03*
X00373874D02*
D03*
X00671874Y01463139D02*
D03*
X00653874D02*
D03*
X00641874D02*
D03*
X00623874D02*
D03*
X00606874Y01488139D02*
D03*
X00588874D02*
D03*
X00613114Y01463139D02*
D03*
X00582634D02*
D03*
X00706874Y01593139D02*
D03*
X00688874D02*
D03*
X00391874Y01588139D02*
D03*
X00373874D02*
D03*
X01103874Y00858139D02*
D03*
X01121874D02*
D03*
X01312634Y00733139D02*
D03*
X01343114D02*
D03*
X01336874Y00758139D02*
D03*
X01318874D02*
D03*
X01353874Y00733139D02*
D03*
X01371874D02*
D03*
X01383874D02*
D03*
X01401874D02*
D03*
X01418874Y00863139D02*
D03*
X01436874D02*
D03*
X01401874Y01463139D02*
D03*
X01383874D02*
D03*
X01371874D02*
D03*
X01353874D02*
D03*
X01336874Y01488139D02*
D03*
X01318874D02*
D03*
X01343114Y01463139D02*
D03*
X01312634D02*
D03*
X01418874Y01593139D02*
D03*
X01436874D02*
D03*
X01121874Y01588139D02*
D03*
X01103874D02*
D03*
D24*
X00457874Y00470807D02*
D03*
X00448222Y00449471D02*
D03*
X00457874Y01200807D02*
D03*
X00448222Y01179471D02*
D03*
X01187874Y00470807D02*
D03*
X01178222Y00449471D02*
D03*
Y01179471D02*
D03*
X01187874Y01200807D02*
D03*
D25*
X00467374Y00449389D02*
D03*
X01197374D02*
D03*
Y01179389D02*
D03*
X00467374D02*
D03*
D26*
X00367874Y00900639D02*
D03*
X00345374D02*
D03*
X00322874D02*
D03*
X01052874D02*
D03*
X01075374D02*
D03*
X01097874D02*
D03*
Y01630639D02*
D03*
X01075374D02*
D03*
X01052874D02*
D03*
X00367874D02*
D03*
X00345374D02*
D03*
X00322874D02*
D03*
D27*
X00596524Y00648639D02*
D03*
X00609224D02*
D03*
X00621924D02*
D03*
X00583824D02*
D03*
X00596524Y00707639D02*
D03*
X00609224D02*
D03*
X00621924D02*
D03*
X00583824D02*
D03*
X00596524Y01378639D02*
D03*
X00609224D02*
D03*
X00621924D02*
D03*
X00583824D02*
D03*
X00596524Y01437639D02*
D03*
X00609224D02*
D03*
X00621924D02*
D03*
X00583824D02*
D03*
X01313824Y00707639D02*
D03*
X01326524D02*
D03*
X01339224D02*
D03*
X01351924D02*
D03*
X01339224Y00648639D02*
D03*
X01326524D02*
D03*
X01313824D02*
D03*
X01351924D02*
D03*
Y01378639D02*
D03*
X01339224D02*
D03*
X01326524D02*
D03*
X01313824D02*
D03*
X01351924Y01437639D02*
D03*
X01339224D02*
D03*
X01326524D02*
D03*
X01313824D02*
D03*
D28*
X00467374Y00449389D02*
Y00487639D01*
X00522874Y00543139D01*
Y00583139D01*
X00621924Y00688139D02*
Y00707639D01*
X00609224D02*
Y00729249D01*
X00597874Y00743139D02*
X00606874Y00752139D01*
Y00758139D01*
X00597874Y00743139D02*
Y00708989D01*
X00621924Y00688139D02*
X00477874D01*
X00473874Y00692139D01*
X00417874D01*
Y00776139D02*
X00440874D01*
X00502874Y00838139D01*
X00567874D01*
X00582874Y00863139D02*
X00592874Y00853139D01*
Y00822139D01*
X00582874Y00812139D01*
Y00803139D01*
X00582874Y00783139D02*
Y00708589D01*
X00562874Y00714139D02*
Y00688139D01*
X00642874Y00734139D02*
Y00783139D01*
X00671874Y00733139D02*
Y00669139D01*
X00697874Y00768139D02*
X00752874Y00823139D01*
Y00958139D01*
X00723274Y00987739D01*
X00612474D01*
Y00961239D01*
X00647874Y00923139D02*
X00663274Y00938539D01*
Y00961239D01*
X00688674D02*
Y00938939D01*
X00699474Y00928139D01*
X00717874D01*
X00737874Y00908139D01*
Y00828139D01*
X00692874Y00783139D01*
X00682874D01*
X00662874D02*
Y00768139D01*
X00662874Y00768139D02*
X00697874D01*
X00682874Y00803139D02*
Y00853139D01*
X00688674Y00858939D01*
Y00885039D01*
X00662874Y00884639D02*
Y00803139D01*
X00707874Y00844139D02*
X00714074Y00850339D01*
Y00885039D01*
X00637874Y00908139D02*
X00508674D01*
X00527874Y00923139D02*
X00647874D01*
X00637874Y00908139D02*
Y00885039D01*
X00587874Y00884239D02*
Y00878139D01*
X00642874Y00823139D01*
Y00803139D01*
X00561674Y00885039D02*
X00482874D01*
Y00907739D01*
X00457874Y00908139D02*
Y00928139D01*
X00522874D01*
X00527874Y00923139D01*
X00559774Y00963139D02*
X00412874D01*
Y00913939D01*
X00399574Y00900639D01*
X00367874D01*
X00347874Y00893139D02*
Y00878139D01*
X00417874D01*
X00432874Y00863139D01*
X00582874D01*
X00581874Y00732139D02*
X00562874D01*
X00417874Y00833139D02*
X00392874Y00858139D01*
X00391874D01*
X00347874Y00878139D02*
Y00862139D01*
X00362874Y00847139D01*
X00373874Y00858139D01*
X00362874Y00847139D02*
Y00818139D01*
X00322874Y00893139D02*
Y00693139D01*
X00323874Y00692139D01*
X00362874D01*
X00322874Y00693139D02*
X00317874D01*
X00317874Y00693139D02*
Y00657139D01*
Y00639139D02*
Y00608139D01*
X00362874D01*
X00432874Y00908539D02*
Y00943139D01*
X00532874D01*
X00537074Y00938939D01*
X00587074D01*
Y00961239D01*
X00467374Y01179389D02*
Y01217639D01*
X00522874Y01273139D01*
Y01313139D01*
X00671874Y01399139D02*
Y01463139D01*
X00697874Y01498139D02*
X00752874Y01553139D01*
Y01688139D01*
X00723274Y01717739D01*
X00612474D01*
Y01691239D01*
X00647874Y01653139D02*
X00663274Y01668539D01*
Y01691239D01*
X00688674D02*
Y01668939D01*
X00699474Y01658139D01*
X00717874D01*
X00737874Y01638139D01*
Y01558139D01*
X00692874Y01513139D01*
X00682874D01*
X00662874D02*
Y01498139D01*
X00662874Y01498139D02*
X00697874D01*
X00682874Y01533139D02*
Y01583139D01*
X00688674Y01588939D01*
Y01615039D01*
X00662874Y01614639D02*
Y01533139D01*
X00707874Y01574139D02*
X00714074Y01580339D01*
Y01615039D01*
X00637874Y01638139D02*
X00508674D01*
X00527874Y01653139D02*
X00647874D01*
X00637874Y01638139D02*
Y01615039D01*
X00587874Y01614239D02*
Y01608139D01*
X00642874Y01553139D01*
Y01533139D01*
X00642874Y01513139D02*
Y01464139D01*
X00606874Y01488139D02*
Y01482139D01*
X00597874Y01473139D01*
Y01438989D01*
X00609224Y01437639D02*
Y01459249D01*
X00621924Y01437639D02*
Y01418139D01*
X00477874D01*
X00473874Y01422139D01*
X00417874D01*
Y01506139D02*
X00440874D01*
X00502874Y01568139D01*
X00567874D01*
X00582874Y01542139D02*
X00592874Y01552139D01*
Y01583139D01*
X00582874Y01593139D01*
X00432874D01*
X00417874Y01608139D01*
X00347874D01*
Y01623139D01*
Y01608139D02*
Y01592139D01*
X00362874Y01577139D01*
X00373874Y01588139D01*
X00362874Y01577139D02*
Y01548139D01*
X00391874Y01588139D02*
X00392874D01*
X00417874Y01563139D01*
X00482874Y01615039D02*
X00561674D01*
X00527874Y01653139D02*
X00522874Y01658139D01*
X00457874D01*
Y01638139D01*
X00482874Y01637739D02*
Y01615039D01*
X00432874Y01638539D02*
Y01673139D01*
X00532874D01*
X00537074Y01668939D01*
X00587074D01*
Y01691239D01*
X00559774Y01693139D02*
X00412874D01*
Y01643939D01*
X00399574Y01630639D01*
X00367874D01*
X00322874Y01623139D02*
Y01423139D01*
X00323874Y01422139D01*
X00362874D01*
X00322874Y01423139D02*
X00317874D01*
X00317874Y01423139D02*
Y01387139D01*
Y01369139D02*
Y01338139D01*
X00362874D01*
X00562874Y01418139D02*
Y01444139D01*
X00582874Y01438589D02*
Y01513139D01*
X00581874Y01462139D02*
X00562874D01*
X00582874Y01533139D02*
Y01542139D01*
X01047874Y01338139D02*
X01092874D01*
X01047874Y01369139D02*
Y01338139D01*
Y01387139D02*
Y01423139D01*
X01047874Y01423139D02*
X01052874D01*
X01053874Y01422139D01*
X01092874D01*
X01052874Y01423139D02*
Y01623139D01*
X01092874Y01577139D02*
X01103874Y01588139D01*
X01092874Y01577139D02*
Y01548139D01*
X01121874Y01588139D02*
X01122874D01*
X01147874Y01563139D01*
Y01608139D02*
X01162874Y01593139D01*
X01312874D01*
X01322874Y01583139D01*
Y01552139D01*
X01312874Y01542139D01*
Y01533139D01*
X01312874Y01513139D02*
Y01438589D01*
X01292874Y01444139D02*
Y01418139D01*
X01327874Y01438989D02*
Y01473139D01*
X01336874Y01482139D01*
Y01488139D01*
X01339224Y01459249D02*
Y01437639D01*
X01351924D02*
Y01418139D01*
X01207874D01*
X01203874Y01422139D01*
X01147874D01*
Y01506139D02*
X01170874D01*
X01232874Y01568139D01*
X01297874D01*
X01317874Y01608139D02*
X01372874Y01553139D01*
Y01533139D01*
X01372874Y01513139D02*
Y01464139D01*
X01401874Y01463139D02*
Y01399139D01*
X01427874Y01498139D02*
X01482874Y01553139D01*
Y01688139D01*
X01453274Y01717739D01*
X01342474D01*
Y01691239D01*
X01317074D02*
Y01668939D01*
X01267074D01*
X01262874Y01673139D01*
X01162874D01*
Y01638539D01*
X01142874Y01643939D02*
Y01693139D01*
X01289774D01*
X01257874Y01653139D02*
X01377874D01*
X01393274Y01668539D01*
Y01691239D01*
X01429474Y01658139D02*
X01447874D01*
X01467874Y01638139D01*
Y01558139D01*
X01422874Y01513139D01*
X01412874D01*
X01392874D02*
Y01498139D01*
X01392874Y01498139D02*
X01427874D01*
X01412874Y01533139D02*
Y01583139D01*
X01418674Y01588939D01*
Y01615039D01*
X01444074D02*
Y01580339D01*
X01437874Y01574139D01*
X01392874Y01614639D02*
Y01533139D01*
X01367874Y01615039D02*
Y01638139D01*
X01238674D01*
X01212874Y01637739D02*
Y01615039D01*
X01291674D01*
X01317874Y01614239D02*
Y01608139D01*
X01257874Y01653139D02*
X01252874Y01658139D01*
X01187874D01*
Y01638139D01*
X01142874Y01643939D02*
X01129574Y01630639D01*
X01097874D01*
X01077874Y01623139D02*
Y01608139D01*
X01147874D01*
X01077874D02*
Y01592139D01*
X01092874Y01577139D01*
X01292874Y01462139D02*
X01311874D01*
X01252874Y01313139D02*
Y01273139D01*
X01197374Y01217639D01*
Y01179389D01*
X01342474Y00987739D02*
X01453274D01*
X01482874Y00958139D01*
Y00823139D01*
X01427874Y00768139D01*
X01392874D01*
X01392874Y00768139D02*
Y00783139D01*
X01412874D02*
X01422874D01*
X01467874Y00828139D01*
Y00908139D01*
X01447874Y00928139D01*
X01429474D01*
X01418674Y00938939D01*
Y00961239D01*
X01393274D02*
Y00938539D01*
X01377874Y00923139D01*
X01257874D01*
X01252874Y00928139D01*
X01187874D01*
Y00908139D01*
X01212874Y00885039D02*
X01291674D01*
X01312874Y00863139D02*
X01322874Y00853139D01*
Y00822139D01*
X01312874Y00812139D01*
Y00803139D01*
X01312874Y00783139D02*
Y00708589D01*
X01292874Y00714139D02*
Y00688139D01*
X01327874Y00708989D02*
Y00743139D01*
X01336874Y00752139D01*
Y00758139D01*
X01339224Y00729249D02*
Y00707639D01*
X01351924Y00688139D02*
Y00707639D01*
Y00688139D02*
X01207874D01*
X01203874Y00692139D01*
X01147874D01*
Y00776139D02*
X01170874D01*
X01232874Y00838139D01*
X01297874D01*
X01312874Y00863139D02*
X01162874D01*
X01147874Y00878139D01*
X01077874D01*
Y00893139D01*
Y00878139D02*
Y00862139D01*
X01092874Y00847139D01*
X01103874Y00858139D01*
X01092874Y00847139D02*
Y00818139D01*
X01121874Y00858139D02*
X01122874D01*
X01147874Y00833139D01*
X01212874Y00885039D02*
Y00907739D01*
X01238674Y00908139D02*
X01367874D01*
Y00885039D01*
X01412874Y00853139D02*
X01418674Y00858939D01*
Y00885039D01*
X01444074D02*
Y00850339D01*
X01437874Y00844139D01*
X01392874Y00884639D02*
Y00803139D01*
X01412874D02*
Y00853139D01*
X01372874Y00823139D02*
X01317874Y00878139D01*
Y00884239D01*
X01372874Y00823139D02*
Y00803139D01*
X01372874Y00783139D02*
Y00734139D01*
X01401874Y00733139D02*
Y00669139D01*
X01311874Y00732139D02*
X01292874D01*
X01252874Y00583139D02*
Y00543139D01*
X01197374Y00487639D01*
Y00449389D01*
X01092874Y00608139D02*
X01047874D01*
Y00639139D01*
Y00657139D02*
Y00693139D01*
X01047874Y00693139D02*
X01052874D01*
X01053874Y00692139D01*
X01092874D01*
X01052874Y00693139D02*
Y00893139D01*
X01097874Y00900639D02*
X01129574D01*
X01142874Y00913939D01*
Y00963139D01*
X01289774D01*
X01317074Y00961239D02*
Y00938939D01*
X01267074D01*
X01262874Y00943139D01*
X01162874D01*
Y00908539D01*
X01342474Y00961239D02*
Y00987739D01*
X01429474Y01658139D02*
X01418674Y01668939D01*
Y01691239D01*
D29*
X00682874Y00600139D02*
X00721874D01*
X01412874D02*
X01451874D01*
Y01330139D02*
X01412874D01*
X00721874D02*
X00682874D01*
D30*
X00800374Y00523139D02*
D03*
X01530374D02*
D03*
Y01253139D02*
D03*
X00800374D02*
D03*
D31*
X00347874Y00568139D02*
D03*
X01077874D02*
D03*
Y01298139D02*
D03*
X00347874D02*
D03*
D32*
X00350374Y00483139D02*
D03*
X01080374D02*
D03*
Y01213139D02*
D03*
X00350374D02*
D03*
D33*
X00612874Y00475639D02*
D03*
X01342874D02*
D03*
Y01205639D02*
D03*
X00612874D02*
D03*
D34*
X00445374Y00318139D02*
D03*
Y01048139D02*
D03*
X01175374Y00318139D02*
D03*
Y01048139D02*
D03*
D35*
X00310374Y00440639D02*
D03*
Y01170639D02*
D03*
X01040374Y00440639D02*
D03*
Y01170639D02*
D03*
D36*
X00385374Y00608139D02*
D03*
X01115374D02*
D03*
Y01338139D02*
D03*
X00385374D02*
D03*
D37*
X00345374Y00953139D02*
D03*
Y01683139D02*
D03*
X01075374Y00953139D02*
D03*
Y01683139D02*
D03*
D38*
X00847874Y00359139D02*
D03*
X01577874D02*
D03*
Y01089139D02*
D03*
X00847874D02*
D03*
D39*
X00807874Y00385639D02*
D03*
X01537874D02*
D03*
Y01115639D02*
D03*
X00807874D02*
D03*
D40*
X00417874Y00568139D02*
D03*
X01147874D02*
D03*
Y01298139D02*
D03*
X00417874D02*
D03*
D41*
X00375374Y00525639D02*
D03*
X01105374D02*
D03*
Y01255639D02*
D03*
X00375374D02*
D03*
D42*
X00524374Y00648639D02*
D03*
X01254374D02*
D03*
Y01378639D02*
D03*
X00524374D02*
D03*
D43*
X00731374Y00648139D02*
D03*
X01461374D02*
D03*
Y01378139D02*
D03*
X00731374D02*
D03*
D44*
X00925374Y00593139D02*
D03*
X01655374D02*
D03*
Y01323139D02*
D03*
X00925374D02*
D03*
D45*
X00937874Y00410639D02*
D03*
X01667874D02*
D03*
Y01140639D02*
D03*
X00937874D02*
D03*
D46*
X00727874Y00510639D02*
D03*
X01457874D02*
D03*
Y01240639D02*
D03*
X00727874D02*
D03*
D47*
X00867874Y00710639D02*
D03*
X01597874D02*
D03*
Y01440639D02*
D03*
X00867874D02*
D03*
D48*
X00882874Y00468639D02*
D03*
X01612874D02*
D03*
Y01198639D02*
D03*
X00882874D02*
D03*
D49*
X00867874Y00555639D02*
D03*
X01597874D02*
D03*
Y01285639D02*
D03*
X00867874D02*
D03*
D50*
X00972874Y00648139D02*
D03*
X01702874D02*
D03*
Y01378139D02*
D03*
X00972874D02*
D03*
D51*
X00752874Y00588139D02*
D03*
X01482874D02*
D03*
Y01318139D02*
D03*
X00752874D02*
D03*
D52*
X00446374Y00473139D02*
D03*
Y01203139D02*
D03*
X01176374Y00473139D02*
D03*
Y01203139D02*
D03*
D53*
X00442874Y00448139D02*
D03*
X01172874D02*
D03*
Y01178139D02*
D03*
X00442874D02*
D03*
D54*
X00537874Y00448139D02*
D03*
X01267874D02*
D03*
Y01178139D02*
D03*
X00537874D02*
D03*
D55*
X00500374Y00378139D02*
D03*
X01230374D02*
D03*
Y01108139D02*
D03*
X00500374D02*
D03*
D56*
X00960374Y00865639D02*
D03*
X01690374D02*
D03*
Y01595639D02*
D03*
X00960374D02*
D03*
M02*
