M48
;Layer_Color=9474304
;FILE_FORMAT=4:4
METRIC,TZ
;TYPE=PLATED
T1F00S00C0.9000
T2F00S00C1.0000
T3F00S00C2.0000
%
T01
X2400874Y449139
X2420874
X2440874
X2460874Y449139
Y469139
X2440874
X2420874
X2400874
X2480874
Y449139
X2500874
X2520874
Y469139
X2500874Y469139
X2540874Y469139
Y449139
X2540874Y649139
X2520874
Y669139
X2540874Y669139
X2500874
X2480874
X2460874
X2440874
X2420874
X2400874
Y649139
X2420874
X2440874
X2460874
X2480874
X2500874
X2380874
Y669139
Y469139
Y449139
X1920874Y449139
Y469139
X1900874
Y449139
X1880874
Y469139
X1860874Y469139
Y449139
X1840874Y449139
Y469139
X1820874
Y449139
X1800874
X1780874
Y469139
X1800874
X1760874
Y449139
Y649139
X1780874
Y669139
X1760874
X1800874
X1820874
Y649139
X1800874
X1840874
Y669139
X1860874
X1880874
Y649139
X1860874
X1900874
Y669139
X1920874Y669139
Y649139
X1300874
X1280874
Y669139
X1300874Y669139
X1260874
X1240874
X1220874
X1200874
Y649139
X1220874
X1240874
X1260874
X1260874Y469139
Y449139
X1280874
Y469139
X1300874
Y449139
X1240874Y449139
Y469139
X1220874
Y449139
X1200874Y449139
Y469139
X1180874
X1160874
Y449139
X1180874
X1140874
Y469139
Y649139
X1160874
Y669139
X1140874
X1180874
Y649139
X680874
X660874
Y669139
X680874Y669139
X640874
X620874
X600874
X580874
X560874
X540874
X520874
Y649139
X540874
X560874
X580874
X600874
X620874
X640874
X640874Y469139
Y449139
X660874
Y469139
X680874
Y449139
X620874Y449139
Y469139
X600874
Y449139
X580874Y449139
Y469139
X560874
X540874
Y449139
X560874
X520874
Y469139
T02
X461874Y319139
Y344539
X589874Y343539
Y318139
X709874
Y343539
X1081874Y344539
Y319139
X1209874Y318139
Y343539
X1329874
Y318139
X1701874Y319139
Y344539
X1829874Y343539
Y318139
X1949874
Y343539
X2321874Y344539
Y319139
X2449874Y318139
Y343539
X2569874
Y318139
X2571876Y763639
X2683876Y763639
X2457876Y763039
X2347874Y763639
X2247874Y767139
Y792539
Y741739
Y716339
X2241474Y573739
X2266874
Y548339
X2241474
Y522939
X2266874
Y497539
X2241474
Y472139
X2266874
X2063876Y763639
X1951876Y763639
X1837876Y763039
X1727874Y763639
X1627874Y767139
Y792539
Y741739
Y716339
X1621474Y573739
X1646874
Y548339
X1621474
Y522939
X1646874
Y497539
X1621474
Y472139
X1646874
X1443876Y763639
X1331876Y763639
X1217876Y763039
X1107874Y763639
X1007874Y767139
Y792539
Y741739
Y716339
X1001474Y573739
X1026874
Y548339
X1001474
Y522939
X1026874
Y497539
X1001474
Y472139
X1026874
X823876Y763639
X711876Y763639
X597876Y763039
X487874Y763639
X406874Y573739
Y548339
Y522939
Y497539
Y472139
X381474
Y497539
Y522939
Y548339
Y573739
X387874Y716339
Y741739
Y767139
Y792539
Y817939
X1007874
X1627874
X2247874
T03
X2457876Y790539
X2571876Y791139
X2683876Y791139
X2347874Y791139
X2063876Y791139
X1951876Y791139
X1837876Y790539
X1727874Y791139
X1443876Y791139
X1331876Y791139
X1217876Y790539
X1107874Y791139
X823876Y791139
X711876Y791139
X597876Y790539
X487874Y791139
Y823639
X597876Y823039
X711876Y823639
X823876Y823639
X1107874Y823639
X1217876Y823039
X1331876Y823639
X1443876Y823639
X1727874Y823639
X1837876Y823039
X1951876Y823639
X2063876Y823639
X2347874Y823639
X2457876Y823039
X2571876Y823639
X2683876Y823639
M30
